<svg xmlns="http://www.w3.org/2000/svg" fill="none" viewBox="0 0 96 96" id="Stability-Ai--Streamline-Svg-Logos" height="24" width="24">
  <desc>
    Stability Ai Streamline Icon: https://streamlinehq.com
  </desc>
  <path fill="url(#a)" d="M4.76046 53.5562c2.42166 0 3.97703-1.2207 3.97703-3.1502 0-1.4963-.96473-2.5398-2.67761-2.9335l-1.04347-.256-.15213-.0352c-.8623-.2061-1.28512-.4352-1.28512-1.087 0-.571.45283-.886 1.22068-.886 2.44098 0 3.32568.886 3.32568.886v-1.9194l-.03151-.0309c-.17651-.1637-1.11444-.9242-3.31386-.9242C2.45693 43.2198 1 44.4011 1 46.2518c0 1.4696.94957 2.4834 2.66219 2.9108l1.07858.259c.90566.2166 1.35849.4529 1.35849 1.1419 0 .6301-.49221.9845-1.35849.9845C2.24526 51.548 1 50.2146 1 50.2146v2.3019l.03202.0338c.18008.1788 1.1522 1.0059 3.72844 1.0059Zm11.91834-.1175v-2.1403l-.3996.0072c-.2322.002-.563.0019-.9855-.0056l-.0858-.0016c-1.069-.0188-1.4408-.523-1.4408-1.7046v-4.0209h2.6796V43.416h-2.6796v-2.1498h-2.5132v2.1498H9.8347v2.1569h1.4192v4.1897c0 2.4757 1.2003 3.6761 3.6573 3.6761h1.7676Zm47.5083 0v-2.1403l-.3996.0072c-.2322.002-.563.0019-.9855-.0056l-.0858-.0016c-1.0691-.0188-1.4408-.523-1.4408-1.7046v-4.0209h2.6796V43.416h-2.6796v-2.1498h-2.5132v2.1498H57.343v2.1569h1.4192v4.1897c0 2.4757 1.2003 3.6761 3.6573 3.6761h1.7676Zm-38.592-10.0048v1.4599c-.6618-1.0706-1.8899-1.674-3.2914-1.674-2.7834 0-4.7104 2.1022-4.7104 5.1192 0 3.017 1.9075 5.0997 4.652 5.0997 1.4209 0 2.6686-.6034 3.3498-1.6739v1.4598h2.3533v-9.7907h-2.3533Zm-2.8749 7.9256c-1.5821 0-2.6369-1.2225-2.6369-2.9298 0-1.6863 1.0751-2.9299 2.6369-2.9299 1.5821 0 2.7382 1.2436 2.7382 2.9299 0 1.7073-1.1764 2.9298-2.7382 2.9298Zm13.3953-8.1397c-1.5759 0-2.5179.9536-3.1743 1.9476V38.942h-2.5133v14.2904h2.4383V51.807c.6377 1.0315 1.8801 1.5742 3.2493 1.5742 2.6258 0 4.5388-2.0632 4.5388-4.9515 0-2.8697-1.6693-5.2099-4.5388-5.2099Zm-.5438 7.9695c-1.6085 0-2.7283-1.2216-2.7283-2.8708 0-1.6288 1.2216-2.7894 2.7894-2.7894 1.5881 0 2.6061 1.1402 2.6061 2.7894s-1.1198 2.8708-2.6672 2.8708Zm8.5245-9.4871c.7816 0 1.3636-.5653 1.3636-1.3302 0-.7816-.5654-1.3303-1.3636-1.3303-.7815 0-1.3469.5487-1.3469 1.3303 0 .7815.5654 1.3302 1.3469 1.3302Zm-1.2483 11.6836h2.5133V43.514h-2.5133v9.8718Zm11.5266-11.6836c.7816 0 1.3636-.5653 1.3636-1.3302 0-.7816-.5654-1.3303-1.3636-1.3303-.7815 0-1.3469.5487-1.3469 1.3303 0 .7815.5654 1.3302 1.3469 1.3302Zm-1.2483 11.6836h2.5133V43.514h-2.5133v9.8718Zm-5.1683-.1182h2.5902V38.8857h-2.5902v14.3819Zm18.8509 3.8471h2.7809l5.3419-13.6568h-2.6045l-2.3346 6.6579-2.3423-6.6579h-2.8884l3.8729 9.5334-1.8259 4.1234Z"></path>
  <path fill="url(#b)" d="M87.4383 43.4342v1.4599c-.6617-1.0706-1.8899-1.674-3.2914-1.674-2.7834 0-4.7104 2.1022-4.7104 5.1192 0 3.017 1.9075 5.0997 4.652 5.0997 1.421 0 2.6686-.6034 3.3498-1.6739v1.4598h2.3534v-9.7907h-2.3534Zm-2.8749 7.9256c-1.5821 0-2.6369-1.2225-2.6369-2.9298 0-1.6863 1.0751-2.9299 2.6369-2.9299 1.5821 0 2.7382 1.2436 2.7382 2.9299 0 1.7073-1.1764 2.9298-2.7382 2.9298Zm9.0733-9.6572c.7815 0 1.3635-.5654 1.3635-1.3303 0-.7816-.5654-1.3303-1.3635-1.3303-.7816 0-1.347.5487-1.347 1.3303 0 .7815.5654 1.3303 1.347 1.3303Zm-1.2484 11.6835h2.5133v-9.8718h-2.5133v9.8718Z"></path>
  <path fill="#e80000" d="M76.416 53.5126c.8613 0 1.5026-.6231 1.5026-1.466 0-.8613-.623-1.466-1.5026-1.466-.8613 0-1.4844.6047-1.4844 1.466s.6231 1.466 1.4844 1.466Z"></path>
  <defs>
    <linearGradient id="a" x1="3697.58" x2="3697.58" y1="38.886" y2="1861.78" gradientUnits="userSpaceOnUse">
      <stop stop-color="#9d39ff"></stop>
      <stop offset="1" stop-color="#a380ff"></stop>
    </linearGradient>
    <linearGradient id="b" x1="857.62" x2="857.62" y1="39.042" y2="1478.74" gradientUnits="userSpaceOnUse">
      <stop stop-color="#9d39ff"></stop>
      <stop offset="1" stop-color="#a380ff"></stop>
    </linearGradient>
  </defs>
</svg>