<?xml version="1.0" encoding="utf-8"?>
<!-- Generator: Adobe Illustrator 25.0.1, SVG Export Plug-In . SVG Version: 6.00 Build 0)  -->
<svg version="1.2" baseProfile="tiny" id="레이어_1"
	 xmlns="http://www.w3.org/2000/svg" xmlns:xlink="http://www.w3.org/1999/xlink" x="0px" y="0px" viewBox="0 0 2048 2048"
	 overflow="visible" xml:space="preserve">
<g>
	<g>
		<path fill="#FFFFFF" d="M1564.7578,765.0339c0,298.6508-242.1287,540.7578-540.7578,540.7578
			c-298.658,0-540.7578-242.1069-540.7578-540.7578c0-298.6364,242.0999-540.7434,540.7578-540.7434
			C1322.6292,224.2905,1564.7578,466.3975,1564.7578,765.0339z"/>
		<g>
			<g>
				<g>
					<g>
						<g>
							<g>
								<path fill="#003764" d="M1277.8081,727.3428c-86.0131-58.4562-196.1324-34.6523-254.0328,53.2386
									c-48.1607,73.4623-121.0543,82.6028-149.1324,82.6028c-92.0962,0-154.9332-64.7352-173.6103-131.6852
									c0,0-0.913-3.3901-1.1521-4.1562c-7.3417-27.986-9.1981-41.2769-9.1981-70.9724
									c0-160.0169,164.307-338.2687,400.7529-338.2687c242.2338,0,380.8677,184.3968,416.688,286.908
									c-0.7173-1.9269-1.3005-3.6421-1.8838-5.4494c-68.7229-200.4715-258.7952-344.5621-482.7034-344.5621
									c-281.5276,0-509.9016,228.2544-509.9016,510.0212c0,251.7908,181.6044,467.2966,433.5634,467.2966
									c200.8517,0,335.891-112.6084,397.7445-267.8792C1378.9554,879.4779,1354.9341,779.7231,1277.8081,727.3428z"/>
							</g>
							<g>
								<path fill="#E4032E" d="M1511.2456,614.9106c-29.8784-100.0068-169.4052-296.8088-419.8102-296.8088
									c-236.4459,0-400.7529,178.2518-400.7529,338.2687c0,29.6954,1.8563,42.9864,9.1981,70.9724
									c-3.0732-12.2569-4.6415-24.4562-4.6415-36.3891c0-166.6977,166.8661-282.1685,338.4229-282.1685
									c232.2983,0,420.5619,188.2708,420.5619,420.4712c0,182.0192-104.7751,339.6814-256.9303,415.3584v0.1406
									c196.2174-71.0641,336.3346-259.0262,336.3346-479.7359C1533.6281,712.7803,1526.6246,666.7077,1511.2456,614.9106z"/>
							</g>
						</g>
					</g>
				</g>
			</g>
		</g>
	</g>
	<g>
		<path fill="#575757" d="M391.384,1691.325v-42.7588H275.2297v-31.9841h269.3446v31.9841H428.0832v42.7588h94.9433v102.3506
			h-36.3608v-70.3663H293.4116v-31.9843H391.384z M522.3527,1505.8151v87.1992h-36.3608v-55.2151H296.1053v-31.9841H522.3527z"/>
		<path fill="#575757" d="M603.8247,1685.9376v-171.7062h225.9135v31.9841H640.187v37.7085h188.2051v31.3103H640.187v38.7191
			h190.5619v31.9841h-95.6171v53.1967h116.4911v32.321H582.2783v-32.321h116.1543v-53.1967H603.8247z"/>
		<path fill="#575757" d="M1036.4576,1648.2292h35.6885v90.905h86.527v32.321H889.327v-32.321h63.2975v-90.905h35.687v90.905
			h48.1462V1648.2292z M1100.0906,1687.959v-139.722H910.2025v-32.321h226.2489v172.0431H1100.0906z"/>
		<path fill="#575757" d="M1217.9235,1621.6324v-118.8466h225.9135v29.626h-189.5526v15.4883h188.2065v28.6182h-188.2065v16.1591
			h190.5632v28.9551h-95.6185v18.8541h116.4927v29.9658h-269.3461v-29.9658h116.1558v-18.8541H1217.9235z M1402.7611,1741.4896
			c0,8.7533-1.7987,17.0027-5.3859,24.7454c-3.593,7.7456-8.6436,14.6475-15.1499,20.7085
			c-6.7349,5.8326-14.4263,10.4877-23.0638,13.9708c-8.6434,3.4773-18.0134,5.2203-28.1129,5.2203
			c-9.8782,0-19.1896-1.743-27.9443-5.2203c-8.7533-3.4832-16.3876-8.1382-22.894-13.9708
			c-6.7349-6.061-11.901-12.9629-15.4882-20.7085c-3.593-7.7427-5.3873-15.9921-5.3873-24.7454
			c0-8.976,1.7943-17.3397,5.3873-25.0795c3.5872-7.7455,8.7533-14.6473,15.4882-20.7085
			c6.5065-5.8326,14.1407-10.4875,22.894-13.9707c8.7548-3.4773,18.0662-5.2205,27.9443-5.2205
			c10.0995,0,19.4695,1.7432,28.1129,5.2205c8.6376,3.4832,16.329,8.1381,23.0638,13.9707
			c6.5063,6.0612,11.5569,12.963,15.1499,20.7085C1400.9624,1724.1499,1402.7611,1732.5137,1402.7611,1741.4896z
			 M1366.7372,1741.1527c0-9.6469-3.5359-17.8962-10.6063-24.7426c-7.0703-6.8462-15.434-10.2708-25.0823-10.2708
			c-9.6526,0-18.012,3.4246-25.0823,10.2708c-7.0703,6.8463-10.6062,15.0957-10.6062,24.7426
			c0,9.6526,3.5359,17.9021,10.6062,24.7454c7.0703,6.8462,15.4297,10.2708,25.0823,10.2708c9.6483,0,18.012-3.4246,25.0823-10.2708
			C1363.2013,1759.0548,1366.7372,1750.8053,1366.7372,1741.1527z"/>
		<path fill="#575757" d="M1503.4257,1685.2668h269.3446v32.321h-116.4911v75.4138H1619.58v-75.4138h-116.1543V1685.2668z
			 M1560.9974,1541.839h154.201v-37.0347h36.0254v141.0696h-226.2504v-141.0696h36.0239V1541.839z M1715.1985,1573.4862h-154.201
			v40.4036h154.201V1573.4862z"/>
	</g>
</g>
</svg>
