<svg xmlns="http://www.w3.org/2000/svg" fill="none" viewBox="0 0 144 24" class="w-144"><path fill="#fff" d="M9.897 4.455v10.329h-.284L3.102 4.454H0v16.432h3.079v-10.61h.307l6.511 10.61h3.079V4.455zM19.62 17.954v-3.92h7.053V11.1H19.62V7.39h7.757V4.455H16.541v16.431h11.071v-2.932zM40.207 4.455v9.427c0 2.675-1.081 4.297-3.336 4.297s-3.387-1.619-3.387-4.297V4.455h-3.267v9.662c0 5.046 3.033 7.159 6.654 7.159s6.607-2.113 6.607-7.16V4.456zM57.899 8.728c0-2.936-2.775-4.273-5.195-4.273h-6.35v16.431H53.2c3.101 0 5.522-1.644 5.522-4.742 0-2.136-1.174-3.52-2.702-3.965v-.189c1.27-.657 1.882-1.902 1.882-3.262m-3.079.376c0 .892-.423 1.856-2.516 1.856h-2.943V7.229h2.943c1.762 0 2.516.726 2.516 1.878m.751 6.833c0 1.245-.87 2.182-3.079 2.182h-3.131v-4.411h3.366c2.21 0 2.844 1.172 2.844 2.229M64.734 4.455h-3.267v16.431h3.267zM71.315 17.812V4.455h-3.29v16.431H79.33v-3.074zM84.79 4.455h-3.268v16.431h3.267zM98.473 4.455H86.437v2.912h4.444v13.52h3.148V7.366h4.444zM109.851 4.455l-3.35 5.983h-.281l-3.35-5.983h-3.303l5.172 9.289v7.142h3.267v-7.142l5.172-9.29z"></path><path fill="#00B451" d="M141.372 24h-2.18v-2.546h2.18a.08.08 0 0 0 .079-.08V5.172a.08.08 0 0 0-.079-.08h-2.18V2.547h2.18A2.63 2.63 0 0 1 144 5.17v16.204A2.63 2.63 0 0 1 141.372 24"></path><path fill="#00B2E3" d="M124.775 24h-2.179a2.63 2.63 0 0 1-2.629-2.625V5.17a2.63 2.63 0 0 1 2.629-2.625h2.179v2.546h-2.179a.08.08 0 0 0-.079.08v16.203c0 .043.036.079.079.079h2.179z"></path><path fill="#00B2E3" d="M139.195 0h-14.42v2.546h14.42z"></path><path fill="#00B451" d="M139.195 18.918h-14.42v2.546h14.42z"></path></svg>