<svg version="1.1" id="Layer_1" xmlns="http://www.w3.org/2000/svg" xmlns:xlink="http://www.w3.org/1999/xlink" x="0px" y="0px"
	 width="100%" viewBox="0 0 200 200" enable-background="new 0 0 200 200" xml:space="preserve">
<path fill="#010101" opacity="1.000000" stroke="none" 
	d="
M105.000000,201.000000 
	C70.021568,201.000000 35.543133,201.000000 1.032351,201.000000 
	C1.032351,134.396591 1.032351,67.793159 1.032351,1.094864 
	C67.561630,1.094864 134.123428,1.094864 200.842621,1.094864 
	C200.842621,67.666374 200.842621,134.333145 200.842621,201.000000 
	C169.126724,201.000000 137.313370,201.000000 105.000000,201.000000 
M134.501068,127.038795 
	C141.946930,127.038795 149.392792,127.038795 156.961929,127.038795 
	C158.199585,122.213211 159.336945,117.778679 160.583237,112.919403 
	C150.014130,112.919403 140.038177,112.926544 130.062241,112.917229 
	C121.482407,112.909225 120.642799,111.854500 122.695053,103.662651 
	C125.093994,94.086906 127.509186,84.515244 129.993271,74.639900 
	C125.064735,74.639900 120.731117,74.496635 116.418839,74.736626 
	C115.284576,74.799759 113.483078,75.849998 113.229706,76.783836 
	C110.272400,87.683540 107.130211,98.562721 104.905632,109.622078 
	C103.168991,118.255684 107.473808,124.446899 116.129631,126.095795 
	C121.775429,127.171295 127.701500,126.775505 134.501068,127.038795 
M97.770737,99.936188 
	C94.765511,98.060547 91.827751,94.706566 88.743332,94.565773 
	C75.551125,93.963623 62.315659,94.309273 49.040668,94.309273 
	C50.106472,101.472191 55.239643,105.681931 63.175503,105.969498 
	C68.327377,106.156181 73.500191,105.859520 78.642235,106.153458 
	C79.863373,106.223274 81.930901,107.773270 81.948883,108.675522 
	C81.974037,109.936821 80.698730,111.646057 79.499832,112.387543 
	C78.368141,113.087471 76.615921,112.897346 75.135963,112.902588 
	C65.163734,112.937897 55.191319,112.920990 45.039608,112.920990 
	C43.813362,117.625038 42.647827,122.096184 41.413040,126.833000 
	C55.124619,126.833000 68.451813,127.537018 81.669731,126.636681 
	C95.115784,125.720802 102.504707,113.153397 97.770737,99.936188 
M95.447540,74.561569 
	C85.812325,74.647385 76.165039,74.469452 66.546059,74.909805 
	C59.904499,75.213852 55.216560,79.050613 51.267845,85.175117 
	C68.412636,85.175117 84.529404,85.214973 100.644859,85.088348 
	C101.757179,85.079613 103.456352,84.073738 103.851097,83.109360 
	C104.890923,80.569000 105.362015,77.795860 106.203560,74.562271 
	C102.626862,74.562271 99.524750,74.562271 95.447540,74.561569 
z"/>
<path fill="#FBFBFB" opacity="1.000000" stroke="none" 
	d="
M134.001541,127.038795 
	C127.701500,126.775505 121.775429,127.171295 116.129631,126.095795 
	C107.473808,124.446899 103.168991,118.255684 104.905632,109.622078 
	C107.130211,98.562721 110.272400,87.683540 113.229706,76.783836 
	C113.483078,75.849998 115.284576,74.799759 116.418839,74.736626 
	C120.731117,74.496635 125.064735,74.639900 129.993271,74.639900 
	C127.509186,84.515244 125.093994,94.086906 122.695053,103.662651 
	C120.642799,111.854500 121.482407,112.909225 130.062241,112.917229 
	C140.038177,112.926544 150.014130,112.919403 160.583237,112.919403 
	C159.336945,117.778679 158.199585,122.213211 156.961929,127.038795 
	C149.392792,127.038795 141.946930,127.038795 134.001541,127.038795 
z"/>
<path fill="#FAFAFA" opacity="1.000000" stroke="none" 
	d="
M97.930725,100.283195 
	C102.504707,113.153397 95.115784,125.720802 81.669731,126.636681 
	C68.451813,127.537018 55.124619,126.833000 41.413040,126.833000 
	C42.647827,122.096184 43.813362,117.625038 45.039608,112.920990 
	C55.191319,112.920990 65.163734,112.937897 75.135963,112.902588 
	C76.615921,112.897346 78.368141,113.087471 79.499832,112.387543 
	C80.698730,111.646057 81.974037,109.936821 81.948883,108.675522 
	C81.930901,107.773270 79.863373,106.223274 78.642235,106.153458 
	C73.500191,105.859520 68.327377,106.156181 63.175503,105.969498 
	C55.239643,105.681931 50.106472,101.472191 49.040668,94.309273 
	C62.315659,94.309273 75.551125,93.963623 88.743332,94.565773 
	C91.827751,94.706566 94.765511,98.060547 97.930725,100.283195 
z"/>
<path fill="#FCFCFC" opacity="1.000000" stroke="none" 
	d="
M95.935089,74.561920 
	C99.524750,74.562271 102.626862,74.562271 106.203560,74.562271 
	C105.362015,77.795860 104.890923,80.569000 103.851097,83.109360 
	C103.456352,84.073738 101.757179,85.079613 100.644859,85.088348 
	C84.529404,85.214973 68.412636,85.175117 51.267845,85.175117 
	C55.216560,79.050613 59.904499,75.213852 66.546059,74.909805 
	C76.165039,74.469452 85.812325,74.647385 95.935089,74.561920 
z"/>
</svg>