<?xml version="1.0" encoding="UTF-8"?>
<svg version="1.1" xmlns="http://www.w3.org/2000/svg" width="1024" height="1024">
<path d="M0 0 C337.92 0 675.84 0 1024 0 C1024 337.92 1024 675.84 1024 1024 C686.08 1024 348.16 1024 0 1024 C0 686.08 0 348.16 0 0 Z " fill="#FEFEFE" transform="translate(0,0)"/>
<path d="M0 0 C0.66 0 1.32 0 2 0 C2.36616425 0.7345491 2.73232849 1.46909821 3.10958862 2.22590637 C6.60682192 9.24063687 10.10611498 16.25433454 13.60757256 23.26695728 C15.40646166 26.86989443 17.204626 30.47318901 19.00097656 34.07739258 C29.13818122 54.43715356 29.13818122 54.43715356 39.63034058 74.61543274 C43.51072333 81.92207138 47.20030749 89.31974248 50.87490845 96.73150635 C56.28151135 107.63270308 61.71251208 118.51191917 67.4453125 129.24609375 C71.50987058 136.88634553 75.3348715 144.64467639 79.18701172 152.39355469 C82.36076345 158.76345452 85.59193628 165.0937595 88.9375 171.375 C93.41594239 179.78501227 97.67008357 188.30271603 101.91171265 196.8336792 C105.99019036 205.03233433 110.15258349 213.17725922 114.453125 221.26171875 C117.82582237 227.61880951 121.03983343 234.04873722 124.23779297 240.49511719 C127.59265599 247.23658022 131.06857518 253.90892653 134.6015625 260.55859375 C135.3676779 262.00144442 136.13051559 263.44604151 136.88964844 264.89257812 C137.65229789 266.34006935 138.42708473 267.78121059 139.21191406 269.21679688 C140.21690155 271.1062078 141.11727298 273.05047018 142 275 C141 278 141 278 138.06689453 279.74243164 C136.76054423 280.39185096 135.44871662 281.03032063 134.1328125 281.66015625 C133.43087769 282.00621918 132.72894287 282.3522821 132.0057373 282.70883179 C129.71638999 283.8355835 127.42071856 284.94879594 125.125 286.0625 C122.76630093 287.22049169 120.4094689 288.38221841 118.05282593 289.54438782 C116.49949471 290.31033001 114.94564246 291.07521649 113.39126587 291.83903503 C107.75250367 294.61330909 102.16687916 297.47389545 96.625 300.4375 C89.50967362 304.23329967 82.32132745 307.86154006 75.09472656 311.44067383 C69.09117369 314.42393553 63.19018135 317.5545775 57.3359375 320.8203125 C55 322 55 322 53 322 C52.46745605 320.95996826 51.93491211 319.91993652 51.38623047 318.84838867 C38.64706223 293.96212688 38.64706223 293.96212688 25.8125 269.125 C25.2772168 268.09342773 24.74193359 267.06185547 24.19042969 265.99902344 C21.71419276 261.22709324 19.23713109 256.45560309 16.75634766 251.68603516 C14.76597141 247.85844556 12.78001315 244.02858773 10.79647827 240.19744873 C10.01998713 238.69948652 9.24202917 237.20228368 8.46255493 235.70587158 C7.3801297 233.62745394 6.3027753 231.54648333 5.2265625 229.46484375 C4.89920609 228.83914993 4.57184967 228.21345612 4.23457336 227.56880188 C2 223.22798532 2 223.22798532 2 221 C1.34 221 0.68 221 0 221 C-0.35578125 222.20076172 -0.35578125 222.20076172 -0.71875 223.42578125 C-2.31270993 227.87234629 -4.36464229 231.97978426 -6.5 236.1875 C-6.88414062 236.95513672 -7.26828125 237.72277344 -7.6640625 238.51367188 C-10.60973171 244.3633263 -13.65745194 250.15751808 -16.71484375 255.94921875 C-21.46608208 264.95198383 -26.12617957 273.99916836 -30.75537109 283.06518555 C-33.0440994 287.54731411 -35.33667059 292.02747692 -37.62890625 296.5078125 C-38.31740158 297.85380524 -38.31740158 297.85380524 -39.01980591 299.22698975 C-43.49856482 307.98019612 -48.00209277 316.72053352 -52.51049805 325.45849609 C-56.83562081 333.84238814 -61.14633706 342.2334793 -65.44140625 350.6328125 C-65.90811737 351.54524719 -66.37482849 352.45768188 -66.85568237 353.39776611 C-69.56267161 358.69044454 -72.26820013 363.98385811 -74.9682312 369.28009033 C-75.79895843 370.90023578 -76.63606377 372.51712799 -77.47976685 374.1305542 C-79.39490074 377.79763741 -81.22344742 381.44954665 -82.83544922 385.26074219 C-87.28004898 395.36963754 -92.85889569 399.04196087 -102.84222412 403.0892334 C-106.42154236 404.60001287 -109.83193322 406.42145516 -113.26953125 408.2265625 C-114.672299 408.94947816 -116.07562618 409.67130926 -117.47949219 410.39208984 C-118.92385894 411.13633342 -120.36819419 411.88063815 -121.8125 412.625 C-123.34666562 413.41490362 -124.88084555 414.20477945 -126.41503906 414.99462891 C-144.7360803 424.43012011 -163.02931368 433.91876202 -181.29541016 443.46020508 C-189.86656125 447.93562443 -198.45079554 452.38566419 -207.03881836 456.82861328 C-212.47321094 459.64242362 -217.89997605 462.46894588 -223.30859375 465.33203125 C-224.28296387 465.84693115 -225.25733398 466.36183105 -226.26123047 466.89233398 C-228.08635802 467.85834406 -229.90969727 468.82774284 -231.73095703 469.80102539 C-232.53259277 470.22504639 -233.33422852 470.64906738 -234.16015625 471.0859375 C-234.85761963 471.4576709 -235.55508301 471.8294043 -236.27368164 472.21240234 C-238 473 -238 473 -240 473 C-238.45412531 467.70677351 -236.0813999 463.12187884 -233.4765625 458.296875 C-232.56721402 456.59093155 -231.65870679 454.88453945 -230.75097656 453.17773438 C-230.29033813 452.3133374 -229.82969971 451.44894043 -229.35510254 450.55834961 C-227.29334836 446.66588549 -225.27983678 442.74934212 -223.2734375 438.828125 C-222.88076187 438.06130905 -222.48808624 437.2944931 -222.08351135 436.50444031 C-220.8463861 434.08678052 -219.61063496 431.66842175 -218.375 429.25 C-217.47947992 427.49906947 -216.58388876 425.74817529 -215.68823242 423.99731445 C-213.78897025 420.28390813 -211.89052366 416.57008636 -209.99267578 412.85595703 C-207.41553766 407.81251973 -204.83658355 402.77001318 -202.25726318 397.72769165 C-200.12622811 393.56121215 -197.99611838 389.39426009 -195.86627197 385.22717285 C-194.84857861 383.23624051 -193.83064338 381.24543177 -192.81243896 379.25476074 C-187.80257064 369.45873296 -182.81670468 359.65290949 -177.91796875 349.80078125 C-174.71571178 343.36313875 -171.43238334 336.97644537 -168.0625 330.625 C-162.52150275 320.17601585 -157.25808822 309.59344716 -152 299 C-146.32683894 287.57030743 -140.60905028 276.17743784 -134.63085938 264.90380859 C-130.67145123 257.42090489 -126.88669485 249.85572893 -123.12646484 242.27124023 C-117.83566494 231.60363913 -112.52684317 220.95549635 -106.90625 210.45703125 C-102.0182663 201.2590349 -97.43702866 191.90330419 -92.79498291 182.57971191 C-88.21776653 173.38979866 -83.6079727 164.2296074 -78.765625 155.17578125 C-74.01353555 146.23732729 -69.54978087 137.1503733 -65.05810547 128.07910156 C-61.50526958 120.91893187 -57.86737083 113.8131273 -54.125 106.75 C-48.91684164 96.91503122 -43.9442572 86.96963112 -39 77 C-33.70427992 66.32167693 -28.34381339 55.69165178 -22.76126099 45.16007996 C-17.98191551 36.11964889 -13.42914753 26.96782737 -8.875 17.8125 C-8.00540029 16.06826366 -7.13560927 14.32412269 -6.265625 12.58007812 C-4.17489185 8.38780707 -2.08669746 4.19428118 0 0 Z " fill="#0F2243" transform="translate(492,209)"/>
<path d="M0 0 C55.77 0 111.54 0 169 0 C164.02897781 8.69928883 159.04063406 17.33461985 153.81802368 25.87783813 C151.95675479 28.92265641 150.10186926 31.97136291 148.24609375 35.01953125 C147.87880661 35.62244492 147.51151947 36.22535858 147.13310242 36.84654236 C144.00269919 41.9878689 140.90189083 47.14646043 137.8125 52.3125 C131.90073179 62.18990766 125.91083577 72.01909632 119.91992188 81.84863281 C116.46364525 87.52177862 113.01167322 93.19753344 109.5625 98.875 C109.20677917 99.46048615 108.85105835 100.04597229 108.48455811 100.64920044 C103.27370947 109.22836076 98.09601551 117.82674719 92.9375 126.4375 C91.14803229 129.41909296 89.35820785 132.40047154 87.56835938 135.38183594 C86.15987159 137.73311597 84.75876712 140.08861392 83.359375 142.4453125 C82.6357996 143.65127151 81.91188207 144.85702536 81.1875 146.0625 C80.60355469 147.04347656 80.01960938 148.02445313 79.41796875 149.03515625 C78.95003906 149.68355469 78.48210937 150.33195313 78 151 C77.34 151 76.68 151 76 151 C73.43135228 146.0547459 70.86799852 141.10679892 68.30957031 136.15625 C67.43798448 134.47157404 66.56494185 132.78765095 65.69042969 131.10449219 C64.43563679 128.68880245 63.1860616 126.27047751 61.9375 123.8515625 C61.34690796 122.71867294 61.34690796 122.71867294 60.74438477 121.56289673 C58 116.22774341 58 116.22774341 58 114 C54.72729081 115.62123977 51.45724143 117.2477842 48.1875 118.875 C47.29740234 119.31585937 46.40730469 119.75671875 45.49023438 120.2109375 C39.27846014 123.3060776 33.12432444 126.50042913 26.98828125 129.7421875 C17.89321849 134.54694457 8.74974756 139.25218453 -0.4118042 143.92868042 C-4.89319289 146.21650834 -9.37242995 148.50854011 -13.8515625 150.80078125 C-14.73252594 151.25159561 -15.61348938 151.70240997 -16.52114868 152.16688538 C-29.05010485 158.5816045 -41.5387643 165.07380105 -54.0234375 171.57421875 C-71.42056737 180.63056528 -88.87387481 189.57370086 -106.34912109 198.47827148 C-115.74568472 203.26970284 -125.12275366 208.09495739 -134.46875 212.984375 C-144.88563504 218.43362709 -155.34411569 223.79799213 -165.82000732 229.13278198 C-170.93080792 231.73566519 -176.03958753 234.34250955 -181.1484375 236.94921875 C-182.16406769 237.46736649 -183.17969788 237.98551422 -184.22610474 238.5193634 C-193.28433287 243.14205666 -202.33278221 247.78357754 -211.375 252.4375 C-212.07774048 252.79918274 -212.78048096 253.16086548 -213.5045166 253.5335083 C-217.65533561 255.67017391 -221.8055433 257.80802427 -225.95544434 259.94647217 C-229.38940198 261.7159373 -232.82363358 263.48487063 -236.2578125 265.25390625 C-240.36552597 267.36994862 -244.47316938 269.48612665 -248.58056641 271.6027832 C-255.66139366 275.25150614 -262.74360067 278.89752256 -269.828125 282.5390625 C-270.94767578 283.11457855 -270.94767578 283.11457855 -272.08984375 283.70172119 C-275.62149095 285.51713691 -279.15332601 287.33218509 -282.68554688 289.14648438 C-283.65846931 289.64937737 -283.65846931 289.64937737 -284.65104675 290.16242981 C-286.02797832 290.866205 -287.41158012 291.5570452 -288.80073547 292.2363739 C-293.36482762 294.50069441 -297.56967226 297.01631684 -301.79956055 299.8605957 C-323.79984855 313.88686386 -345.60962408 312.82395702 -371.02966309 312.02996826 C-376.5677117 311.87397704 -382.10685268 311.80748516 -387.64648438 311.73242188 C-398.43377353 311.57357565 -409.21633957 311.31906604 -420 311 C-418.57713634 307.98182031 -417.15203705 304.96470125 -415.7265625 301.94775391 C-415.32767822 301.10156998 -414.92879395 300.25538605 -414.51782227 299.38356018 C-410.60536996 291.10831394 -406.45169672 282.97750632 -402.14794922 274.89819336 C-399.53156627 269.96934374 -396.96335158 265.1254374 -394.9453125 259.91796875 C-389.65358252 246.81673838 -380.13900885 243.00673583 -367.59667969 237.63720703 C-361.59670898 234.90602297 -355.82222731 231.75345799 -350.00537109 228.65600586 C-345.12177034 226.05554584 -340.20761268 223.51833112 -335.28125 221 C-334.47585785 220.58785751 -333.6704657 220.17571503 -332.84066772 219.75108337 C-329.57856648 218.08267253 -326.3153792 216.41639153 -323.05224609 214.75 C-313.32355358 209.77984378 -303.62179149 204.76485541 -293.96105957 199.66375732 C-286.71802161 195.84234505 -279.44093865 192.08942031 -272.15332031 188.35388184 C-268.37184712 186.4153409 -264.59220668 184.47323239 -260.8125 182.53125 C-260.05936523 182.14434998 -259.30623047 181.75744995 -258.53027344 181.35882568 C-251.67891754 177.83780343 -244.83733743 174.29817718 -238 170.75 C-236.38436157 169.91178711 -236.38436157 169.91178711 -234.73608398 169.05664062 C-229.16727261 166.16628024 -223.60059665 163.27184539 -218.03515625 160.375 C-207.08782995 154.68141288 -196.12682578 149.02914158 -185.07250977 143.54589844 C-178.70844982 140.3798291 -172.42113779 137.08076947 -166.14257812 133.74902344 C-159.75167397 130.36855759 -153.30287753 127.11490853 -146.81445312 123.92578125 C-141.23593842 121.16797259 -135.72807526 118.28621401 -130.2265625 115.37890625 C-120.60244382 110.29520848 -110.92042502 105.32969787 -101.22253418 100.38848877 C-96.28493817 97.87248864 -91.34955074 95.3521629 -86.4140625 92.83203125 C-85.4331665 92.33125061 -84.45227051 91.83046997 -83.44165039 91.31451416 C-74.86841547 86.93611502 -66.30579089 82.53737586 -57.75 78.125 C-57.09390747 77.78664124 -56.43781494 77.44828247 -55.76184082 77.09967041 C-53.14325655 75.74904156 -50.52477928 74.39820572 -47.90649414 73.04699707 C-43.13445482 70.58444301 -38.36059217 68.12544764 -33.5859375 65.66796875 C-16.37487637 56.80885287 0.82180709 47.92270567 18 39 C16.54981203 34.23279477 14.56246032 29.87529561 12.3046875 25.44921875 C11.95238068 24.74980667 11.60007385 24.05039459 11.23709106 23.32978821 C10.12021479 21.11373804 8.99798121 18.9004619 7.875 16.6875 C6.74561412 14.45632691 5.61740357 12.22457863 4.4914856 9.99165344 C3.79256505 8.60609614 3.09150917 7.22161356 2.38815308 5.83830261 C0 1.11168739 0 1.11168739 0 0 Z " fill="#AB2739" transform="translate(631,452)"/>
<path d="M0 0 C3.14145472 2.66768126 4.76440832 6.05374638 6.58984375 9.66796875 C6.93043823 10.33120651 7.27103271 10.99444427 7.62194824 11.67778015 C8.73281887 13.84483089 9.83524954 16.01605382 10.9375 18.1875 C11.70605846 19.69112409 12.47502315 21.19454061 13.24438477 22.69775391 C18.12963957 32.25734483 22.96952039 41.84040957 27.71655273 51.46948242 C31.04169044 58.18764368 34.52513284 64.81635727 38.02598572 71.44393921 C42.76263639 80.42254206 47.38337815 89.4592692 52 98.5 C53.84057318 102.10055337 55.68194458 105.70069821 57.5234375 109.30078125 C57.98261566 110.19867874 58.44179382 111.09657623 58.91488647 112.02168274 C62.7089712 119.43810263 66.52141829 126.84496497 70.33813477 134.24975586 C76.1163214 145.46023721 81.88839784 156.67388447 87.5625 167.9375 C88.00996582 168.81946045 88.45743164 169.7014209 88.91845703 170.61010742 C89.31790527 171.40779541 89.71735352 172.2054834 90.12890625 173.02734375 C90.46994385 173.70531006 90.81098145 174.38327637 91.16235352 175.08178711 C92 177 92 177 93 181 C56.37 181 19.74 181 -18 181 C-22.95 171.1 -22.95 171.1 -28 161 C-30.32474517 156.57652656 -32.64922291 152.15396699 -34.98828125 147.73828125 C-38.94521625 140.23014494 -42.81084481 132.67478623 -46.6875 125.125 C-48.26033339 122.06245722 -49.83324266 118.99995344 -51.40625 115.9375 C-51.79523972 115.1801506 -52.18422943 114.42280121 -52.58500671 113.64250183 C-56.27339622 106.46355063 -59.97800996 99.29306573 -63.6875 92.125 C-64.28409424 90.97088623 -64.88068848 89.81677246 -65.49536133 88.62768555 C-68.37330536 83.06288207 -71.25772975 77.50168973 -74.15809631 71.94854736 C-75.56139754 69.26067212 -76.96158399 66.57118037 -78.36148071 63.88153076 C-79.03062876 62.59803829 -79.70131422 61.31534603 -80.37362671 60.0335083 C-81.30236938 58.26261082 -82.22553133 56.48878993 -83.1484375 54.71484375 C-83.94000244 53.20071899 -83.94000244 53.20071899 -84.74755859 51.65600586 C-85.81060509 49.40164274 -86.5233427 47.43355613 -87 45 C-72.14261635 37.27800829 -57.26907101 29.58847753 -42.375 21.9375 C-28.22663845 14.6695034 -14.10152475 7.35852197 0 0 Z " fill="#0F2243" transform="translate(682,582)"/>
<path d="M0 0 C0.66 0.33 1.32 0.66 2 1 C0.21118264 2.00508801 -1.58114696 3.00392736 -3.375 4 C-4.37273437 4.556875 -5.37046875 5.11375 -6.3984375 5.6875 C-9 7 -9 7 -11 7 C-10.34 5.02 -9.68 3.04 -9 1 C-8.67 1.99 -8.34 2.98 -8 4 C-7.44570312 3.69964844 -6.89140625 3.39929688 -6.3203125 3.08984375 C-5.59585937 2.70957031 -4.87140625 2.32929687 -4.125 1.9375 C-3.04605469 1.36322266 -3.04605469 1.36322266 -1.9453125 0.77734375 C-1.30335938 0.52082031 -0.66140625 0.26429688 0 0 Z " fill="#28344A" transform="translate(263,675)"/>
<path d="M0 0 C0 0.99 0 1.98 0 3 C-5.5 6.125 -5.5 6.125 -10 5 C-6.7 3.35 -3.4 1.7 0 0 Z " fill="#A0404E" transform="translate(311,665)"/>
</svg>
