<?xml version="1.0" encoding="utf-8"?>
<!-- Generator: Adobe Illustrator 26.0.3, SVG Export Plug-In . SVG Version: 6.00 Build 0)  -->
<svg version="1.0" id="Layer_1" xmlns="http://www.w3.org/2000/svg" xmlns:xlink="http://www.w3.org/1999/xlink" x="0px" y="0px"
	 viewBox="0 0 258 184.2" style="enable-background:new 0 0 258 184.2;" xml:space="preserve">
<style type="text/css">
	.st0{clip-path:url(#SVGID_00000123443400737567891090000002738984327686479260_);}
	.st1{fill:#21409A;}
	.st2{fill:#DDB00A;}
	.st3{fill-rule:evenodd;clip-rule:evenodd;fill:#FFFFFF;}
	.st4{fill:#FFFFFF;}
	.st5{clip-path:url(#SVGID_00000150814008273654027260000009617416508042076578_);}
	.st6{clip-path:url(#SVGID_00000140705555549107198980000008001623759560903613_);}
	.st7{clip-path:url(#SVGID_00000051342140582223237660000002376141831258543245_);}
	.st8{clip-path:url(#SVGID_00000179639393164178269420000015697319336719807620_);}
	.st9{clip-path:url(#SVGID_00000085929372415068673820000014618501524444707507_);}
	.st10{clip-path:url(#SVGID_00000067926117475493531990000007086250193864660157_);}
</style>
<g>
	<defs>
		<rect id="SVGID_1_" x="29" y="59.2" width="200" height="65.8"/>
	</defs>
	<clipPath id="SVGID_00000055684603541360918120000008685440263838346919_">
		<use xlink:href="#SVGID_1_"  style="overflow:visible;"/>
	</clipPath>
	<g style="clip-path:url(#SVGID_00000055684603541360918120000008685440263838346919_);">
		<path class="st1" d="M80.9,105.2c-7.7,12.7-24.2,16.7-36.9,9c-3.7-2.2-6.7-5.3-9-9l-5.2,4.8c9.9,14.8,29.6,19.4,45,10.5
			c4.4-2.7,8.2-6.3,11.1-10.6L80.9,105.2z"/>
		<rect x="35.6" y="59.2" class="st2" width="44.7" height="1.7"/>
		<path class="st1" d="M80.3,77.1c-0.1,5,1.1,24.8-22.4,38.6c-23.4-13.8-22.3-33.6-22.4-38.6V60.9h44.7V77.1z"/>
		<path class="st2" d="M38.6,94.5c2.8,7,8.4,14.8,19.4,21.2c11-6.5,16.6-14.3,19.4-21.2L58,76.6L38.6,94.5z"/>
		<path class="st3" d="M54.3,65.4V74c-2.2-0.7-4.7-0.4-6.6,0.9v-8.6C49,65.1,52.1,64.5,54.3,65.4"/>
		<path class="st3" d="M40.5,65.4V74c2.2-0.7,4.7-0.4,6.6,0.9v-8.5C45.8,65.1,42.7,64.6,40.5,65.4"/>
		<path class="st4" d="M56.3,72.2L56.3,72.2l-0.8-0.1v-2.8l0.7,0.1l0,0c0.7,0,0.8-0.3,0.8-0.3c-0.1-0.3-0.4-0.5-0.8-0.5l0,0
			l-0.8-0.1v-2.4h-0.6v8.7c-3.2-0.7-5.6-0.3-7.5,1.1c-1.9-1.4-4.3-1.8-7.5-1.1v-8.7h-0.6v2.4h-0.5v-0.1c0-0.1-0.1-0.1-0.1-0.1
			c0,0,0,0,0,0l-0.8,0.1c-0.1,0-0.1,0.1-0.1,0.1l0,0v1c0,0.1,0.1,0.1,0.1,0.1c0,0,0,0,0,0l0.8-0.1c0.1,0,0.1-0.1,0.1-0.1v-0.1h0.5
			v2.8h-0.5v0c0-0.1-0.1-0.1-0.1-0.1c0,0,0,0,0,0l-0.8,0.1c-0.1,0-0.1,0.1-0.1,0.1l0,0v1c0,0.1,0.1,0.1,0.1,0.1c0,0,0,0,0,0l0.8-0.1
			c0.1,0,0.1,0,0.1-0.1c0,0,0,0,0-0.1V73h0.5v2.5l0.4-0.1c3.3-0.8,5.7-0.4,7.6,1l0.2,0.2l0.2-0.2c1.9-1.5,4.3-1.8,7.6-1l0.4,0.1V73
			l0.7,0.1l0,0c0.7,0,0.8-0.3,0.8-0.3C56.9,72.5,56.6,72.3,56.3,72.2"/>
		<path class="st4" d="M39.8,116.5c-0.3,0.4-0.8,0.5-1.4,0c-0.2-0.2-0.5-0.4-0.6-0.7l0.3-0.4c0,0,0.1,0,0.1,0c0,0,0,0,0,0l0.2,0.2
			c0,0,0,0,0,0.1l-0.1,0.2c0.1,0.1,0.2,0.3,0.4,0.4c0.3,0.2,0.6,0.3,0.8,0c0.2-0.3,0.2-0.4-0.2-1c-0.4-0.6-0.4-0.8-0.1-1.1
			s0.8-0.4,1.4,0c0.2,0.1,0.4,0.3,0.5,0.5l-0.3,0.4c0,0-0.1,0-0.1,0l-0.2-0.2l0,0l0.1-0.2c-0.1-0.1-0.2-0.1-0.2-0.2
			c-0.3-0.2-0.6-0.2-0.8,0s-0.1,0.4,0.2,0.9S40,116.2,39.8,116.5"/>
		<path class="st4" d="M42.9,118.9l-0.2,0.4l-1.7-1c0,0,0,0,0-0.1l0.1-0.2l0,0h0.1l1.3-2.2l-0.1-0.1c0,0,0,0,0-0.1l0.1-0.2l0,0
			l1.6,1l-0.3,0.4c0,0,0,0-0.1,0l-0.2-0.1l0,0l0.1-0.1l-0.9-0.5l-0.5,0.8l1,0.6l-0.2,0.3l-1-0.6l-0.5,0.9l0.9,0.6l0.1-0.1
			c0,0,0,0,0.1,0L42.9,118.9z"/>
		<path class="st4" d="M46.4,120.5L46.4,120.5l-0.2,0.5l-1.8-0.8c0,0,0,0,0-0.1l0.1-0.2l0,0h0.1l1-2.3l-0.1-0.1c0,0,0,0,0-0.1
			l0.1-0.2l0,0l1.7,0.8l-0.2,0.4c0,0,0,0-0.1,0c0,0,0,0,0,0l-0.2-0.1l0,0v-0.1l-0.9-0.4l-0.4,0.9l1,0.4l-0.1,0.3l-0.9-0.4l-0.4,1
			l1,0.4l0-0.1c0,0,0,0,0.1,0L46.4,120.5z"/>
		<path class="st4" d="M51.2,119.3C51.2,119.3,51.2,119.3,51.2,119.3l-0.1,0.3l0,0h-0.1l-1.3,0.8l0.6,1.7h0.1 M50.5,122l-0.1,0.2
			l0,0l-0.4-0.1l-0.5-1.6l-0.4,0.2l-0.2,0.8H49c0,0,0,0,0,0.1l-0.1,0.2l0,0l-0.7-0.2c0,0,0,0,0-0.1l0.1-0.2l0,0h0.1l0.7-2.4H49
			c0,0,0,0,0-0.1l0.1-0.2l0,0l0.7,0.2c0,0,0,0,0,0.1l-0.1,0.2l0,0h-0.1l-0.3,1.1l1.3-0.8h-0.1c0,0,0,0,0-0.1l0.1-0.2l0,0L50.5,122z"
			/>
		<path class="st4" d="M58.4,120.1C58.4,120.1,58.4,120.1,58.4,120.1v0.3l0,0h-0.1l-0.8,2.7c0,0.1-0.1,0.1-0.2,0.1h-0.3
			c0,0-0.1,0-0.1-0.1l-0.4-2.4l0,0l-0.7,2.2c0,0.1-0.1,0.2-0.2,0.2h-0.3c0,0-0.1,0-0.1-0.1l-0.5-2.8h-0.1c0,0,0,0,0-0.1V120l0,0h0.7
			c0,0,0,0,0,0.1v0.2l0,0h-0.1l0.4,2.4l0,0l0.7-2.4c0-0.1,0.1-0.2,0.2-0.2h0.2c0,0,0.1,0,0.1,0.1l0.5,2.6l0,0l0.7-2.3h-0.1
			c0,0,0,0,0-0.1v-0.2l0,0L58.4,120.1z"/>
		<path class="st4" d="M60.9,122.7C60.9,122.7,60.9,122.7,60.9,122.7v0.3l0,0l-0.7,0.1c0,0,0,0,0-0.1v-0.2l0,0h0.1l-0.2-2.5H60
			c0,0,0,0,0-0.1V120l0,0l0.7-0.1c0,0,0,0,0,0.1v0.2l0,0h-0.1l0.2,2.5L60.9,122.7z"/>
		<path class="st4" d="M64.8,121.6c0.1,0.5-0.2,0.9-0.9,1.1c-0.3,0.1-0.6,0.1-0.9,0l-0.1-0.5c0,0,0-0.1,0-0.1c0,0,0,0,0,0h0.2
			c0,0,0,0,0,0v0.2c0.2,0,0.3,0,0.5,0c0.4-0.1,0.6-0.2,0.6-0.6s-0.2-0.4-0.9-0.5c-0.5-0.1-0.8-0.2-0.9-0.7s0.2-0.9,0.9-1
			c0.2,0,0.5-0.1,0.7-0.1l0.1,0.5c0,0,0,0.1-0.1,0.1h-0.2c0,0,0,0,0,0v-0.2h-0.3c-0.4,0.1-0.6,0.3-0.5,0.6s0.2,0.4,0.8,0.4
			S64.7,121.2,64.8,121.6"/>
		<path class="st4" d="M66.8,118.6c1.2-0.4,1.7,0.1,2,1c0.4,1.1,0,1.7-1.1,2l-0.8,0.3c0,0-0.1,0-0.1,0l-0.1-0.2l0,0h0.1l-0.8-2.4H66
			c0,0,0,0-0.1,0v-0.2l0,0L66.8,118.6z M67.8,121.2c0.8-0.3,0.8-0.9,0.6-1.5s-0.5-1.1-1.4-0.8l-0.3,0.1l0.8,2.3L67.8,121.2z"/>
		<path class="st4" d="M72.6,117.8c0.5,1,0.3,1.6-0.4,2c-0.7,0.4-1.4,0.1-1.9-0.8c-0.3-0.7-0.5-1.6,0.4-2S72.2,117,72.6,117.8
			 M70.8,118.8c0.2,0.5,0.7,1,1.2,0.7c0.6-0.3,0.5-0.8,0.2-1.4c-0.2-0.5-0.7-1-1.2-0.7S70.6,118.3,70.8,118.8"/>
	</g>
</g>
<g>
	<defs>
		<rect id="SVGID_00000123428136075782983680000011410334290012688054_" x="29" y="59.2" width="200" height="65.7"/>
	</defs>
	<clipPath id="SVGID_00000041287781186403069460000002095351636269680267_">
		<use xlink:href="#SVGID_00000123428136075782983680000011410334290012688054_"  style="overflow:visible;"/>
	</clipPath>
	<g style="clip-path:url(#SVGID_00000041287781186403069460000002095351636269680267_);">
		<path class="st4" d="M77.5,116.1C77.5,116.1,77.5,116.1,77.5,116.1l0.2,0.2l0,0l-0.6,0.4c0,0,0,0-0.1,0l-0.1-0.2l0,0l0.1-0.1
			l-1.2-1.6l0.4,2c0,0.1,0,0.1,0,0.2l-0.1,0.1c0,0-0.1,0-0.1,0l-1.8-1.1l1.1,1.6l0.1-0.1c0,0,0,0,0.1,0l0.1,0.2l0,0l-0.5,0.4
			c0,0,0,0-0.1,0c0,0,0,0,0,0l-0.1-0.2l0,0l0.1-0.1l-1.4-2.1l-0.1,0.1 M73.5,115.8l-0.1-0.2l0,0l0.4-0.3h0l2.1,1.2l-0.5-2.3
			c0,0,0-0.1,0-0.1l0.4-0.3c0,0,0,0,0.1,0l0.1,0.2l0,0l-0.1,0.1l1.5,2L73.5,115.8z"/>
		<path class="st1" d="M31.1,107.6l3.3-3l0.7-0.7l0.4,0.7c0.7,1.2,1.5,2.3,2.4,3.3l1.1-1c-1.5-1.8-2.7-3.9-3.7-6.1
			c-0.3-0.8-0.6-1.7-0.9-2.6l-1.8,4.6l-3.8,0.5l0,0L31.1,107.6z"/>
	</g>
</g>
<g>
	<defs>
		<rect id="SVGID_00000037670063813342719810000017340397585840778406_" x="29" y="59.2" width="200" height="65.8"/>
	</defs>
	<clipPath id="SVGID_00000160176131594648036260000009426796590887559359_">
		<use xlink:href="#SVGID_00000037670063813342719810000017340397585840778406_"  style="overflow:visible;"/>
	</clipPath>
	<g style="clip-path:url(#SVGID_00000160176131594648036260000009426796590887559359_);">
		<path class="st3" d="M75.4,65.4V74c-2.2-0.7-4.7-0.4-6.6,0.9v-8.6C70.2,65.1,73.2,64.5,75.4,65.4"/>
		<path class="st3" d="M61.6,65.4V74c2.2-0.7,4.7-0.4,6.6,0.9v-8.5C66.9,65.1,63.9,64.6,61.6,65.4"/>
		<path class="st4" d="M77.4,72.2L77.4,72.2l-0.8-0.1v-2.8l0.7,0.1l0,0c0.7,0,0.8-0.3,0.8-0.3c-0.1-0.3-0.4-0.5-0.8-0.5l0,0
			l-0.8-0.1v-2.4h-0.6v8.7c-3.2-0.7-5.6-0.3-7.5,1.1c-2-1.4-4.4-1.8-7.6-1.1v-8.7h-0.6v2.4h-0.5v-0.1c0-0.1-0.1-0.1-0.1-0.1
			c0,0,0,0,0,0L59,68.4c-0.1,0-0.1,0.1-0.1,0.1l0,0v1c0,0.1,0.1,0.1,0.1,0.1c0,0,0,0,0,0l0.8-0.1c0.1,0,0.1-0.1,0.1-0.1v-0.1h0.5
			v2.8h-0.5v0c0-0.1-0.1-0.1-0.1-0.1c0,0,0,0,0,0L59,72.1c-0.1,0-0.1,0.1-0.1,0.1l0,0v1c0,0.1,0.1,0.1,0.1,0.1c0,0,0,0,0,0l0.8-0.1
			c0.1,0,0.1,0,0.1-0.1c0,0,0,0,0,0v-0.1h0.5v2.5l0.4-0.1c3.3-0.8,5.7-0.4,7.6,1l0.2,0.2l0.2-0.2c1.9-1.5,4.3-1.8,7.6-1l0.4,0.1V73
			l0.7,0.1l0,0c0.7,0,0.8-0.3,0.8-0.3C78,72.5,77.7,72.3,77.4,72.2"/>
		<path class="st1" d="M84.8,107.6l-3.3-3l-0.8-0.7l-0.4,0.7c-0.7,1.2-1.5,2.3-2.4,3.3l-1.1-1c1.5-1.8,2.8-3.9,3.7-6.1
			c0.3-0.8,0.6-1.7,0.9-2.6l1.8,4.6l3.8,0.5l0,0L84.8,107.6z"/>
		<path class="st4" d="M59.1,101.4c1,0.6,2,0.9,3.1,0.9h0.1c0.3,0,0.5-0.1,0.8-0.2c0.2-0.1,0.3-0.2,0.5-0.4c0.1-0.2,0.2-0.4,0.2-0.6
			l-0.2,0.1h-0.1c-1,0.1-2,0-3-0.3c-0.3,0.3-0.7,0.4-1.1,0.3L59.1,101.4"/>
		<path class="st4" d="M61,94.2c0,0.1-0.1,0.2-0.1,0.2c-0.2,0.3-0.4,0.6-0.7,0.7c0,0.1,0,0.2,0,0.3c0.6-0.2,1.1-0.5,1.7-0.8
			c1.6-0.7,3-1.9,4.1-3.3l0.1-0.1c0.1-0.3,0.2-0.6,0.2-0.9c0-0.5-0.2-0.9-0.5-1.2c-0.6,1.2-1.4,2.3-2.4,3.3
			C62.6,93,61.8,93.6,61,94.2"/>
		<path class="st4" d="M60.7,99.6c-0.2,0.2-0.6,0.4-0.9,0.4h-0.2c0,0.1,0,0.2-0.1,0.2c1.4,0.5,2.9,0.6,4.3,0.4h0.1
			c0.3-0.1,0.5-0.2,0.7-0.4c0.2-0.2,0.3-0.3,0.4-0.6c0.1-0.1,0.1-0.3,0.1-0.4c-0.2,0.1-0.3,0.1-0.5,0.2C63.3,99.7,62,99.8,60.7,99.6
			"/>
		<path class="st4" d="M66.1,94.6c-1.4,1.1-3.1,1.9-4.9,2.2c-0.2,0.3-0.5,0.5-0.8,0.6c-0.1,0-0.2,0.1-0.3,0.1v0.2h0.6
			c1.8,0,3.5-0.4,5.1-1.3l0.1-0.1c0.2-0.2,0.4-0.4,0.6-0.7c0.1-0.2,0.2-0.5,0.2-0.7c0-0.2-0.1-0.5-0.2-0.7c-0.1,0.1-0.1,0.2-0.2,0.2
			L66.1,94.6"/>
		<path class="st4" d="M61.9,103c-1.1-0.1-2.2-0.5-3.1-1c-0.1,0.1-0.1,0.2-0.2,0.3c0.8,0.4,1.7,0.8,2.6,1l-0.1,0.1
			c-0.2,0.1-0.3,0.3-0.5,0.3c-0.3,0.1-0.5,0.1-0.8,0h-0.1c-0.6-0.1-1.1-0.4-1.6-0.7c-0.1,0.1-0.1,0.2-0.2,0.2
			c0.5,0.4,1.1,0.7,1.8,0.9c-0.1,0.1-0.3,0.2-0.4,0.2c-0.2,0.1-0.4,0.1-0.7,0h-0.1c-0.4-0.1-0.9-0.3-1.2-0.6l-0.3,0.1
			c-0.2,0.1-0.5,0.1-0.7,0.1c-0.7,0-1.3-0.3-1.8-0.8c0,0-0.2,0.2-0.2,0.2c0.5,0.6,1.2,0.9,1.9,0.9c0.3,0,0.7-0.1,1-0.2
			c0.4,0.3,0.9,0.5,1.4,0.6h0.1c0.2,0.1,0.5,0.1,0.7,0c0.2-0.1,0.4-0.1,0.5-0.3c0.1,0,0.1-0.1,0.2-0.2c0.3,0,0.5,0,0.8-0.1
			c0.2-0.1,0.4-0.2,0.6-0.3c0.1-0.1,0.3-0.2,0.3-0.4c0.2,0,0.4,0,0.7,0c0.2,0,0.3-0.1,0.4-0.2c0.1-0.1,0.2-0.2,0.2-0.3
			c-0.3,0.1-0.6,0.1-0.9,0.1h-0.1"/>
		<path class="st4" d="M63.1,94.5c-0.6,0.4-1.2,0.7-1.8,1c-0.1,0.1-0.2,0.2-0.3,0.4c-0.2,0.3-0.6,0.5-0.9,0.6c0,0.1,0,0.2,0,0.3
			l1.1-0.3c1.8-0.4,3.4-1.1,4.7-2.3c0,0,0.1,0,0.1-0.1c0.2-0.2,0.4-0.5,0.4-0.8c0.1-0.4,0-0.9-0.2-1.2C65.3,93,64.3,93.9,63.1,94.5"
			/>
		<path class="st4" d="M65.9,96.8l-0.1,0.1c-1.4,0.8-3.1,1.2-4.7,1.2l0,0c-0.2,0.2-0.3,0.3-0.5,0.4c-0.2,0.1-0.4,0.2-0.7,0.2
			c0,0.1,0,0.1,0,0.2l0,0c1.8,0.3,3.6,0.2,5.3-0.4h0.1c0.3-0.1,0.5-0.3,0.7-0.6c0.1-0.2,0.2-0.4,0.3-0.7c0.1-0.2,0.1-0.5,0-0.7
			C66.1,96.7,66,96.8,65.9,96.8"/>
		<path class="st4" d="M61,92.3c0,0.3-0.1,0.6-0.3,0.9c-0.2,0.3-0.4,0.6-0.7,0.7v0.3c1-0.6,2-1.3,2.8-2.1c1-0.9,1.7-2,2.3-3.2
			c0.1-0.3,0.2-0.7,0.2-1c0-0.6-0.3-1.2-0.9-1.5c0,0.1,0,0.3,0,0.4c-0.5,1.7-1.4,3.3-2.6,4.6C61.5,91.6,61.3,91.9,61,92.3"/>
		<path class="st4" d="M61.4,91.1c1.2-1.3,2.1-2.9,2.6-4.6c0.1-0.5-0.1-1-0.5-1.4c0,0.9-1.3,3.1-3.2,5.6c0.2,0.5,0.1,1-0.2,1.4
			c-0.1,0.2-0.2,0.3-0.3,0.4l0.1,0.3C60.4,92.3,60.9,91.7,61.4,91.1"/>
		<path d="M49.2,92.2L49,92.1c0,0.2,0,0.4,0,0.7c0,0.5-0.1,1.1-0.2,1.6c0,0.1,0,0.2,0.1,0.3c0,0,0.1,0,0.1,0l0,0
			c0.2-0.5,0.5-1,0.7-1.4l0.2-0.2C49.9,92.7,49.6,92.4,49.2,92.2"/>
		<path d="M67.2,94.9c0-0.4-0.1-0.7-0.3-1c0.2-0.4,0.3-0.8,0.3-1.2c0-0.5-0.2-1-0.5-1.3c0.2-0.4,0.3-0.8,0.3-1.2
			c0-0.7-0.4-1.4-1-1.8c0-0.1,0-0.3,0-0.4c0.1-0.9-0.5-1.8-1.3-2.2c-0.2-0.8-0.6-1.5-1.2-2c-0.7,2.2-1.8,4.2-3.2,6
			c-1.1,1.6-1.4,3.1-2,4.9c-0.7,2.1-1.2,4.4-3.2,5.7c0-0.2,0-0.4,0-0.7c0.3-2.9,2.7-7.6,1.8-10.4c0-0.2-0.1-0.3-0.2-0.5
			c-0.8-1.9-2.7-2.2-4.7-1.3c-1.2,0.6-2.5,1-3.1,2.3c-0.2,0.5-0.3,1-0.3,1.6c0,0.1,0.1,0.2,0.2,0.2c0.1,0,0.3,0,0.3-0.2
			c0.1-0.1,0.1-0.2,0.1-0.4l0,0c0,0,0-0.1,0-0.1c0-0.1,0.2-0.2,0.3-0.2s0.2,0.2,0.2,0.3c0,0,0,0,0,0c0,0,0,0,0,0.1l-0.1,0.2
			c-0.1,0.1-0.1,0.2-0.1,0.4c0,0.2,0.1,0.3,0.2,0.4l0,0c0.6,0.2,1.3-0.1,1.6-0.7c0.2-0.2,0.3-0.5,0.4-0.7c0.2-0.4,0.2-0.8,0.5-1.2
			c0.5-0.6,2.1-1,2.8-0.2c1.3,1.6-0.1,3.7-1.1,5c-1.3,1.8-2.5,3.6-3.5,5.6c-2.1,5,1.5,9.9,7.2,9.9c2.9,0.2,5.6-1.2,7.3-3.5
			c-1.5-0.1-2.9-0.8-3.9-1.8c0.4,0,0.7-0.2,1-0.5l0.4-0.1c0.5,0,1-0.4,1.2-0.9c0.1-0.3,0.1-0.5,0.2-0.8c0.2-0.1,0.4-0.3,0.5-0.6
			c0.1-0.2,0.1-0.4,0.1-0.7c0.6-0.2,1.1-0.7,1.3-1.3c0.1-0.3,0.2-0.5,0.1-0.8c0.7-0.4,1.1-1.2,1.1-2c0-0.2-0.1-0.5-0.2-0.7
			C67.1,95.9,67.2,95.4,67.2,94.9 M66.2,97.4c0,0.2-0.1,0.5-0.3,0.7c-0.2,0.3-0.4,0.5-0.7,0.6h-0.1c-1.7,0.6-3.5,0.7-5.3,0.4l0,0
			c0-0.1,0-0.1,0.1-0.2c0.2,0,0.5-0.1,0.7-0.2c0.2-0.1,0.4-0.2,0.5-0.4l0,0c1.7,0,3.3-0.5,4.7-1.3l0.1-0.1l0.2-0.2
			C66.3,96.9,66.3,97.1,66.2,97.4 M65,99.6c-0.1,0.2-0.2,0.4-0.4,0.6c-0.2,0.2-0.5,0.3-0.7,0.4h-0.1c-1.5,0.2-2.9,0.1-4.3-0.4
			c0-0.1,0-0.2,0.1-0.2h0.2c0.3,0,0.7-0.2,0.9-0.4c1.3,0.2,2.6,0.1,3.9-0.2c0.2-0.1,0.3-0.1,0.5-0.2C65.1,99.3,65.1,99.4,65,99.6
			 M62.3,103.3c-0.2,0-0.4,0-0.7,0c-0.1,0.1-0.2,0.3-0.3,0.4c-0.2,0.2-0.4,0.3-0.6,0.3c-0.3,0-0.5,0-0.8,0c0,0.1-0.1,0.1-0.1,0.2
			c-0.1,0.1-0.3,0.2-0.5,0.3c-0.2,0.1-0.5,0.1-0.7,0h-0.1c-0.5-0.1-1-0.3-1.4-0.6c-0.3,0.1-0.7,0.2-1,0.2c-0.7,0-1.4-0.4-1.9-0.9
			c0,0,0.1-0.2,0.2-0.2c0.5,0.5,1.1,0.8,1.8,0.8c0.2,0,0.5-0.1,0.7-0.1l0.3-0.1c0.4,0.3,0.8,0.5,1.2,0.6h0.1c0.2,0.1,0.4,0.1,0.7,0
			c0.2,0,0.3-0.1,0.4-0.2c-0.6-0.2-1.2-0.5-1.8-0.9c0.1-0.1,0.2-0.1,0.2-0.2c0.5,0.3,1.1,0.6,1.6,0.8h0.1c0.3,0.1,0.5,0.1,0.8,0
			c0.2-0.1,0.4-0.2,0.5-0.3l0.1-0.1c-0.9-0.2-1.8-0.6-2.6-1c0.1-0.1,0.1-0.2,0.2-0.3c1,0.5,2,0.9,3.1,1H62c0.3,0,0.6,0,0.9-0.1
			c-0.1,0.1-0.1,0.2-0.2,0.3C62.6,103.1,62.4,103.2,62.3,103.3 M62.3,102.2L62.3,102.2c-1.2-0.1-2.3-0.4-3.2-0.9l0.1-0.3
			c0.4,0.1,0.8,0,1.1-0.3c1,0.3,2,0.4,3,0.3h0.1l0.2-0.1c0,0.2-0.1,0.4-0.2,0.6c-0.1,0.2-0.3,0.3-0.5,0.4
			C62.7,102.2,62.5,102.2,62.3,102.2 M64,86.5c-0.5,1.7-1.3,3.3-2.6,4.6c-0.5,0.6-1,1.2-1.5,1.7l-0.1-0.3c0.1-0.1,0.2-0.3,0.3-0.4
			c0.3-0.4,0.4-0.9,0.2-1.4c1.9-2.5,3.2-4.7,3.2-5.6C63.9,85.4,64.1,86,64,86.5 M64.5,86.4c0.6,0.3,0.9,0.9,0.9,1.5
			c0,0.3,0,0.7-0.2,1c-0.6,1.2-1.3,2.3-2.3,3.2c-0.9,0.8-1.8,1.6-2.8,2.1v-0.3c0.3-0.2,0.6-0.4,0.7-0.7c0.2-0.3,0.3-0.6,0.3-0.9
			c0.3-0.3,0.5-0.6,0.8-0.9c1.2-1.3,2.2-2.9,2.6-4.6C64.5,86.7,64.5,86.5,64.5,86.4 M66.5,93.2c-0.1,0.3-0.2,0.6-0.4,0.8L66,94.1
			c-1.4,1.2-3,1.9-4.7,2.3c-0.4,0.1-0.7,0.2-1.1,0.3c0-0.1,0-0.2,0-0.3c0.4-0.1,0.7-0.3,0.9-0.6c0.1-0.1,0.2-0.2,0.3-0.3
			c0.6-0.3,1.3-0.6,1.8-1c1.2-0.7,2.2-1.5,3-2.6C66.5,92.2,66.6,92.7,66.5,93.2 M66,91.1L66,91.1c-1.1,1.5-2.5,2.7-4.1,3.4
			c-0.6,0.3-1.1,0.6-1.7,0.8v-0.2c0.3-0.2,0.6-0.4,0.7-0.7l0.1-0.2c0.8-0.5,1.6-1.2,2.3-1.9c1-0.9,1.8-2,2.3-3.3
			c0.4,0.3,0.6,0.8,0.6,1.2C66.3,90.6,66.2,90.9,66,91.1 M65.8,96.3L65.8,96.3c-1.7,0.9-3.4,1.4-5.2,1.3h-0.6v-0.2
			c0.1,0,0.2,0,0.3-0.1c0.3-0.1,0.6-0.3,0.8-0.6c1.8-0.3,3.5-1.1,4.9-2.2l0.1-0.1c0.1-0.1,0.1-0.2,0.2-0.2c0.1,0.2,0.2,0.4,0.2,0.7
			c0,0.2-0.1,0.5-0.2,0.7C66.3,95.9,66.1,96.1,65.8,96.3"/>
		<path class="st1" d="M102.1,61v1.6c0,0.1-0.1,0.2-0.2,0.1h-0.7c0,0-0.1,0-0.1-0.1v-0.4h-2v7.9h0.4c0.1,0,0.1,0.1,0.1,0.2v0.7
			c0,0,0,0.1-0.1,0.1c0,0,0,0,0,0h-2.3c-0.1,0-0.2-0.1-0.1-0.2v-0.7c0,0,0-0.1,0.1-0.1h0.4v-8h-1.8v0.4c0,0.1-0.1,0.1-0.2,0.1H95
			c-0.1,0-0.1,0-0.1-0.1c0,0,0,0,0,0V61H102.1z"/>
		<path class="st1" d="M111.8,70.1c0.1,0,0.1,0.1,0.1,0.2V71c0,0,0,0.1-0.1,0.1c0,0,0,0,0,0h-2.3c-0.1,0-0.2-0.1-0.1-0.2v-0.7
			c0,0,0-0.1,0.1-0.1h0.4v-3.6h-4.5V70h0.4c0.1,0,0.1,0.1,0.1,0.2v0.7c0,0.1,0,0.1-0.1,0.1c0,0,0,0,0,0h-2.3c-0.1,0-0.2-0.1-0.1-0.2
			v-0.7c0-0.1,0-0.1,0.1-0.1h0.4v-8.1h-0.4c-0.1,0-0.1-0.1-0.1-0.2v-0.7c0,0,0-0.1,0.1-0.1c0,0,0,0,0,0h2.2c0.1,0,0.2,0.1,0.2,0.2
			v0.7c0,0,0,0.1-0.1,0.1h-0.4v3.4h4.5v-3.4h-0.4c-0.1,0-0.1-0.1-0.1-0.2v-0.7c0,0,0-0.1,0.1-0.1c0,0,0,0,0,0h2.2
			c0.1,0,0.2,0.1,0.1,0.2v0.7c0,0,0,0.1-0.1,0.1h-0.4V70L111.8,70.1z"/>
		<path class="st1" d="M120,69.3c0.1,0,0.1,0,0.1,0.1c0,0,0,0,0,0V71h-6.3c-0.1,0-0.2-0.1-0.1-0.2v-0.7c0,0,0-0.1,0.1-0.1h0.4V62
			h-0.4c-0.1,0-0.1-0.1-0.1-0.2v-0.7c0,0,0-0.1,0.1-0.1c0,0,0,0,0,0h6.1v1.6c0,0.1-0.1,0.2-0.2,0.1h-0.7c0,0-0.1,0-0.1-0.1v-0.4
			h-3.1v3.1h3.7v1.2h-3.7v3.3h3.4v-0.4c0-0.1,0.1-0.1,0.2-0.1L120,69.3z"/>
		<path class="st1" d="M135,61c0.1,0,0.1,0.1,0.1,0.2v0.7c0,0.1,0,0.1-0.1,0.1h-0.4l0,0v5.4c0,2.6-1,3.9-3.6,3.9
			c-2.7,0-3.6-0.8-3.6-3.9v-5.4H127c-0.1,0-0.1-0.1-0.1-0.2v-0.7c0,0,0-0.1,0.1-0.1c0,0,0,0,0,0h2.2c0.1,0,0.2,0.1,0.1,0.2v0.7
			c0,0,0,0.1-0.1,0.1h-0.4v5.6c0,1.6,0.5,2.5,2.1,2.5c1.8,0,2.2-1.1,2.2-2.5v-5.6h-0.4c-0.1,0-0.1-0.1-0.1-0.2v-0.7
			c0-0.1,0-0.1,0.1-0.1c0,0,0,0,0,0L135,61z"/>
		<path class="st1" d="M145.9,61c0.1,0,0.2,0.1,0.2,0.2v0.7c0,0,0,0.1-0.1,0.1h-0.4h-0.1V71h-1c-0.1,0-0.1,0-0.2-0.1l-5.3-7.4V70
			h0.1h0.4c0.1,0,0.1,0.1,0.1,0.2v0.7c0,0,0,0.1-0.1,0.1c0,0,0,0,0,0h-2.2c-0.1,0-0.2-0.1-0.1-0.2v-0.7c0,0,0-0.1,0.1-0.1h0.4v-8.1
			h-0.4c-0.1,0-0.1-0.1-0.1-0.2v-0.7c0,0,0-0.1,0.1-0.1c0,0,0,0,0,0h1.4c0.1,0,0.1,0,0.2,0.1l5.2,7.2v-6.4h-0.4
			c-0.1,0-0.1-0.1-0.1-0.2v-0.7c0,0,0-0.1,0.1-0.1c0,0,0,0,0,0L145.9,61z"/>
		<path class="st1" d="M150.5,70.1c0.1,0,0.1,0.1,0.1,0.2V71c0,0,0,0.1-0.1,0.1c0,0,0,0,0,0h-2.2c-0.1,0-0.2-0.1-0.2-0.2v-0.7
			c0,0,0-0.1,0.1-0.1h0.4V62h-0.4c-0.1,0-0.1-0.1-0.1-0.2v-0.7c0-0.1,0-0.1,0.1-0.1c0,0,0,0,0,0h2.2c0.1,0,0.1,0.1,0.1,0.2v0.7
			c0,0.1,0,0.1-0.1,0.1h-0.4v8.1H150.5z"/>
		<path class="st1" d="M161,61c0.1,0,0.2,0.1,0.1,0.2v0.7c0,0,0,0.1-0.1,0.1h-0.4l-3.2,8.8c-0.1,0.2-0.2,0.3-0.4,0.3h-1.1
			c0,0-0.1,0-0.1-0.1l-3.4-9h-0.4c-0.1,0-0.1-0.1-0.1-0.2v-0.7c0,0,0-0.1,0.1-0.1c0,0,0,0,0,0h2.2c0.1,0,0.2,0.1,0.1,0.2v0.7
			c0,0,0,0.1-0.1,0.1H154l2.6,7.3l0,0l2.6-7.3h-0.4c-0.1,0-0.1-0.1-0.1-0.2v-0.7c0,0,0-0.1,0.1-0.1c0,0,0,0,0,0L161,61z"/>
		<path class="st1" d="M168.9,69.3c0.1,0,0.1,0,0.1,0.1c0,0,0,0,0,0V71h-6.3c-0.1,0-0.1-0.1-0.1-0.2v-0.7c0-0.1,0-0.1,0.1-0.1h0.4
			V62h-0.4c-0.1,0-0.1-0.1-0.1-0.2v-0.7c0,0,0-0.1,0.1-0.1c0,0,0,0,0,0h6.1v1.6c0,0.1-0.1,0.2-0.2,0.1h-0.6c0,0-0.1,0-0.1-0.1v-0.4
			h-3.2v3.1h3.7v1.2h-3.7v3.3h3.5v-0.4c0-0.1,0.1-0.1,0.2-0.1L168.9,69.3z"/>
		<path class="st1" d="M178,70.1c0.1,0,0.1,0.1,0.1,0.2V71c0,0.1,0,0.1-0.1,0.1c0,0,0,0,0,0h-1.5l-2.2-4h-1.4V70h0.4
			c0.1,0,0.1,0.1,0.1,0.2v0.6c0,0.1,0,0.1-0.1,0.1c0,0,0,0,0,0h-2.2c-0.1,0-0.2-0.1-0.1-0.2v-0.7c0,0,0-0.1,0.1-0.1h0.4v-8.1H171
			c-0.1,0-0.1-0.1-0.1-0.2v-0.7c0-0.1,0-0.1,0.1-0.1c0,0,0,0,0,0h3c2.5,0,3.7,1,3.7,3c0,1.3-0.7,2.4-1.9,2.9l1.8,3.2L178,70.1z
			 M174,66c1.4,0,2.2-0.6,2.2-2s-0.7-1.9-2.1-1.9h-1.2V66L174,66z"/>
		<path class="st1" d="M186.1,68.3c0,1.6-1.2,2.8-3.5,2.8c-1,0-2-0.2-2.9-0.6V69c0-0.1,0.1-0.2,0.2-0.2h0.8c0.1,0,0.1,0,0.1,0.1
			c0,0,0,0,0,0v0.7c0.5,0.1,1.1,0.2,1.6,0.2c1.2,0,2.1-0.4,2.1-1.5s-0.4-1.4-2.4-2.1c-1.4-0.5-2.5-1.3-2.5-2.7
			c0-1.6,1.2-2.7,3.4-2.7c0.8,0,1.5,0.1,2.3,0.3v1.7c0,0.1-0.1,0.2-0.2,0.2h-0.8c-0.1,0-0.1-0.1-0.1-0.1v-0.7c-0.3,0-0.7-0.1-1-0.1
			c-1.2,0-2,0.6-2,1.5s0.6,1.3,2.3,1.9S186.1,67,186.1,68.3"/>
		<path class="st1" d="M190.3,70.1c0.1,0,0.1,0.1,0.1,0.2V71c0,0.1,0,0.1-0.1,0.1c0,0,0,0,0,0h-2.2c-0.1,0-0.1-0.1-0.1-0.2v-0.7
			c0-0.1,0-0.1,0.1-0.1h0.4V62H188c-0.1,0-0.1-0.1-0.1-0.2v-0.7c0,0,0-0.1,0.1-0.1c0,0,0,0,0,0h2.2c0.1,0,0.2,0.1,0.1,0.2v0.7
			c0,0,0,0.1-0.1,0.1h-0.4v8.1H190.3z"/>
		<path class="st1" d="M199.2,61v1.6c0,0.1-0.1,0.2-0.2,0.1h-0.6c0,0-0.1,0-0.1-0.1v-0.4h-2v7.9h0.4c0.1,0,0.1,0.1,0.1,0.2v0.7
			c0,0.1,0,0.1-0.1,0.1c0,0,0,0,0,0h-2.2c-0.1,0-0.1-0.1-0.1-0.2v-0.7c0,0,0-0.1,0.1-0.1h0.4v-8H193v0.4c0,0.1-0.1,0.1-0.2,0.1h-0.6
			c-0.1,0-0.1,0-0.1-0.1c0,0,0,0,0,0V61H199.2z"/>
		<path class="st1" d="M208,61c0.1,0,0.2,0.1,0.1,0.2v0.7c0,0,0,0.1-0.1,0.1h-0.4l-2.8,5.6V70h0.4c0.1,0,0.1,0.1,0.1,0.2v0.7
			c0,0.1,0,0.1-0.1,0.1c0,0,0,0,0,0H203c-0.1,0-0.1-0.1-0.1-0.2v-0.7c0-0.1,0-0.1,0.1-0.1h0.4v-2.6l-2.8-5.5h-0.4
			c-0.1,0-0.1-0.1-0.1-0.2v-0.7c0-0.1,0-0.1,0.1-0.1c0,0,0,0,0,0h2.2c0.1,0,0.1,0.1,0.1,0.2v0.7c0,0,0,0.1-0.1,0.1h-0.4l1.9,4.2l0,0
			l2.1-4.2h-0.4c-0.1,0-0.1-0.1-0.1-0.2v-0.7c0,0,0-0.1,0.1-0.1c0,0,0,0,0,0L208,61z"/>
		<path class="st1" d="M221.1,66c0,3.4-1.5,5.1-4.1,5.1S213,69.4,213,66c0-2.4,0.9-5.1,4.1-5.1C219.8,60.9,221.1,63,221.1,66
			 M214.5,66c0,1.7,0.4,3.9,2.5,3.9c1.8,0,2.5-1.5,2.5-3.9c0-1.7-0.4-3.9-2.5-3.9S214.5,64.3,214.5,66"/>
		<path class="st1" d="M228.9,61v1.6c0,0.1-0.1,0.2-0.2,0.1H228c0,0-0.1,0-0.1-0.1v-0.4h-3.2v3.1h3.5v1.2h-3.5v3.6h0.4
			c0.1,0,0.1,0.1,0.1,0.2v0.7c0,0.1,0,0.1-0.1,0.1c0,0,0,0,0,0h-2.2c-0.1,0-0.1-0.1-0.1-0.2v-0.7c0,0,0-0.1,0.1-0.1h0.4V62h-0.4
			c-0.1,0-0.1-0.1-0.1-0.2v-0.7c0,0,0-0.1,0.1-0.1c0,0,0,0,0,0L228.9,61z"/>
		<path class="st1" d="M122.4,75.7c0.2,0,0.3,0.2,0.3,0.4l-0.1,1.4c0,0.1,0,0.2-0.2,0.2h-0.8l-4.8,19.1c-0.2,0.6-0.7,1-1.3,1
			l-2.2-0.1c-0.3,0-0.4-0.2-0.5-0.5l-3.9-16.7l0,0l-3.8,16c-0.1,0.8-0.7,1.4-1.5,1.3l-2.2-0.1c-0.3,0-0.4-0.2-0.5-0.5L96,77.9h-0.9
			c-0.2,0-0.3-0.2-0.3-0.5L95,76c0-0.1,0.1-0.2,0.2-0.2c0,0,0,0,0,0h4.7c0.2,0,0.3,0.2,0.3,0.4l-0.1,1.4c0,0.1-0.1,0.2-0.2,0.2h-0.8
			l3.7,16.7l0,0l4.1-17.6c0.2-1,0.7-1.3,1.4-1.3l1.6,0.1c0.3,0,0.4,0.2,0.5,0.6l4.2,18.3l0,0l3.8-16.7h-0.9c-0.2,0-0.3-0.2-0.3-0.5
			l0.1-1.4c0-0.1,0.1-0.2,0.2-0.2c0,0,0,0,0.1,0L122.4,75.7z"/>
		<path class="st1" d="M138.3,94.2c0.1,0,0.2,0.1,0.2,0.2c0,0,0,0,0,0V98h-13.9c-0.2,0-0.3-0.2-0.3-0.5l0.1-1.4
			c0-0.1,0.1-0.2,0.2-0.2l0.8-0.1V77.9l-0.9-0.1c-0.2,0-0.3-0.2-0.3-0.5l0.1-1.4c0-0.1,0.1-0.2,0.2-0.2c0,0,0,0,0,0H138v3.5
			c0,0.2-0.2,0.3-0.5,0.3l-1.4-0.1c-0.1,0-0.2-0.1-0.2-0.2l-0.1-0.8h-7.1v6.8h8.1v2.6h-8.1v7.5h7.6l0.1-0.9c0-0.2,0.2-0.3,0.5-0.2
			L138.3,94.2z"/>
		<path class="st1" d="M154.7,91.9c0,3.6-2.7,6.2-7.7,6.2c-2.2,0-4.4-0.4-6.4-1.2v-3.5c0-0.3,0.2-0.4,0.6-0.4l1.7,0.1
			c0.1,0,0.3,0.1,0.3,0.3c0,0,0,0,0,0l0.1,1.6c1.2,0.3,2.4,0.5,3.6,0.5c2.6,0,4.6-0.9,4.6-3.3c0-2.6-1-3.1-5.4-4.7
			c-3.2-1.2-5.4-2.8-5.4-6c0-3.6,2.7-6,7.6-6c1.7,0,3.4,0.2,5.1,0.6v3.8c0,0.2-0.2,0.4-0.5,0.4l-1.7-0.1c-0.1,0-0.3-0.1-0.3-0.2
			c0,0,0,0,0,0l-0.1-1.6c-0.7-0.1-1.5-0.1-2.3-0.2c-2.7,0-4.4,1.2-4.4,3.2s1.2,2.8,5.1,4.2C153.3,87,154.7,89,154.7,91.9"/>
		<path class="st1" d="M171.9,75.7v3.5c0,0.2-0.2,0.3-0.5,0.3l-1.4-0.1c-0.1,0-0.2-0.1-0.2-0.2v-0.8l0,0h-4.4v17.4l0.9,0.1
			c0.2,0,0.3,0.2,0.2,0.5l-0.1,1.4c0,0.1-0.1,0.2-0.2,0.2c0,0,0,0,0,0h-4.9c-0.2,0-0.3-0.2-0.3-0.5l0-1.4c0-0.1,0.1-0.2,0.2-0.2
			l0.8-0.1V78.4h-4l-0.1,0.9c0,0.2-0.2,0.3-0.5,0.2l-1.4-0.1c-0.1,0-0.2-0.1-0.2-0.2c0,0,0,0,0,0v-3.5H171.9z"/>
		<path class="st1" d="M188,94.2c0.1,0,0.2,0.1,0.2,0.2c0,0,0,0,0,0V98h-13.9c-0.2,0-0.4-0.2-0.3-0.5l0.1-1.4c0-0.1,0.1-0.2,0.2-0.2
			l0.8-0.1V77.9l-0.9-0.1c-0.2,0-0.3-0.2-0.3-0.5l0.1-1.4c0-0.1,0.1-0.2,0.2-0.2c0,0,0,0,0.1,0h13.4v3.5c0,0.2-0.2,0.3-0.4,0.3
			l-1.4-0.1c-0.1,0-0.2-0.1-0.2-0.2v-0.8h-7.2v6.8h8.1v2.6h-8.1v7.5h7.6l0.1-0.9c0-0.2,0.2-0.3,0.5-0.2L188,94.2z"/>
	</g>
</g>
<g>
	<defs>
		<rect id="SVGID_00000154412742752874859950000000434578513001471679_" x="29" y="59.2" width="200" height="65.7"/>
	</defs>
	<clipPath id="SVGID_00000146470413498725808780000012636164940066904246_">
		<use xlink:href="#SVGID_00000154412742752874859950000000434578513001471679_"  style="overflow:visible;"/>
	</clipPath>
	<g style="clip-path:url(#SVGID_00000146470413498725808780000012636164940066904246_);">
		<path class="st1" d="M206.7,95.9c0.2,0,0.3,0.2,0.3,0.5l-0.1,1.4c0,0.1-0.1,0.2-0.2,0.2c0,0,0,0,0,0h-3.3l-4.9-8.6h-3.2v6.4
			l0.9,0.1c0.2,0,0.3,0.2,0.3,0.5l-0.1,1.4c0,0.1-0.1,0.2-0.2,0.2c0,0,0,0,0,0h-4.9c-0.2,0-0.4-0.2-0.3-0.5l0.1-1.4
			c0-0.1,0.1-0.2,0.2-0.2l0.8-0.1V77.9l-0.9-0.1c-0.2,0-0.3-0.2-0.3-0.5l0.1-1.4c0-0.1,0.1-0.2,0.2-0.2c0,0,0,0,0,0h6.5
			c5.6,0,8.2,2.1,8.2,6.7c0.1,2.8-1.6,5.4-4.2,6.4l4.1,7L206.7,95.9z M197.8,86.9c3.1,0,4.9-1.3,4.9-4.4s-1.7-4.1-4.6-4.1h-2.8v8.5
			L197.8,86.9z"/>
		<path class="st1" d="M228.7,75.7c0.2,0,0.4,0.2,0.3,0.4l-0.1,1.4c0,0.1-0.1,0.2-0.2,0.2h-0.8h-0.3v20.1h-2.1
			c-0.1,0-0.3-0.1-0.3-0.2l-11.7-16.4v14.4h0.2l0.9,0.1c0.2,0,0.3,0.2,0.3,0.5l-0.1,1.4c0,0.1-0.1,0.2-0.2,0.2c0,0,0,0,0,0h-4.9
			c-0.2,0-0.3-0.2-0.3-0.5l0.1-1.4c0-0.1,0.1-0.2,0.2-0.2l0.8-0.1V77.9h-0.9c-0.2,0-0.3-0.2-0.2-0.5l0.1-1.4c0-0.1,0.1-0.2,0.2-0.2
			c0,0,0,0,0,0h3.2c0.1,0,0.3,0.1,0.3,0.2l11.5,16V77.9h-0.9c-0.2,0-0.3-0.2-0.3-0.5l0.1-1.4c0-0.1,0.1-0.2,0.2-0.2c0,0,0,0,0,0
			L228.7,75.7z"/>
	</g>
</g>
<g>
	<defs>
		<rect id="SVGID_00000024685337187883308490000005907644938889691568_" x="29" y="59.2" width="200" height="65.8"/>
	</defs>
	<clipPath id="SVGID_00000090990938046913585670000008827347068670761359_">
		<use xlink:href="#SVGID_00000024685337187883308490000005907644938889691568_"  style="overflow:visible;"/>
	</clipPath>
	<g style="clip-path:url(#SVGID_00000090990938046913585670000008827347068670761359_);">
		<path class="st1" d="M111.8,119.8c0.2,0,0.2,0.2,0.2,0.4l-0.1,1.2c0,0.1-0.1,0.2-0.2,0.2c0,0,0,0,0,0h-4.3c-0.2,0-0.3-0.1-0.3-0.4
			l0.1-1.2c0-0.1,0.1-0.2,0.2-0.2l0.7-0.1l-1-2.7h-7.7l-0.9,2.7l0.8,0.1c0.2,0,0.2,0.2,0.2,0.4l-0.1,1.2c0,0.1-0.1,0.2-0.2,0.2
			c0,0,0,0,0,0h-4.2c-0.2,0-0.3-0.1-0.3-0.4l0.1-1.2c0-0.1,0.1-0.2,0.2-0.2l0.7-0.1l5.5-15.3h-0.7c-0.2,0-0.2-0.2-0.2-0.4l0.1-1.2
			c0-0.1,0.1-0.2,0.2-0.2c0,0,0,0,0,0h3.9l6.6,17.2L111.8,119.8z M106.5,114.8l-3.2-9.1l0,0l-3,9.1H106.5z"/>
		<path class="st1" d="M127.4,102.5c0.2,0,0.3,0.2,0.3,0.4l-0.1,1.2c0,0.1-0.1,0.2-0.2,0.2h-0.7h-0.1v10.2c0,5-2,7.3-6.9,7.3
			c-4.7,0-6.8-1.6-6.8-7.3v-10.1h-0.8c-0.2,0-0.2-0.2-0.2-0.4l0.1-1.2c0-0.1,0.1-0.2,0.2-0.2c0,0,0,0,0,0h4.2c0.2,0,0.3,0.2,0.3,0.4
			l-0.1,1.1c0,0.1-0.1,0.2-0.2,0.2h-0.7V115c0,3,0.9,4.7,4,4.7c3.4,0,4.2-2.1,4.2-4.7v-10.6h-0.8c-0.2,0-0.2-0.2-0.2-0.4l0.1-1.2
			c0-0.1,0.1-0.2,0.2-0.2c0,0,0,0,0,0L127.4,102.5z"/>
		<path class="st1" d="M141.3,116.4c0,3.1-2.3,5.3-6.6,5.3c-1.9,0-3.7-0.3-5.5-1.1v-3c0-0.2,0.2-0.3,0.5-0.3l1.5,0.1
			c0.1,0,0.2,0.1,0.2,0.2v1.3c1,0.2,2,0.4,3.1,0.4c2.2,0,4-0.8,4-2.8c0-2.2-0.8-2.6-4.6-4c-2.8-1-4.6-2.4-4.6-5.2
			c0-3.1,2.3-5.1,6.5-5.1c1.5,0,2.9,0.2,4.3,0.5v3.3c0,0.2-0.2,0.3-0.5,0.3l-1.5-0.1c-0.1,0-0.2-0.1-0.2-0.2v-1.3
			c-0.6-0.1-1.3-0.1-1.9-0.1c-2.3,0-3.8,1.1-3.8,2.8s1,2.4,4.4,3.6C140.2,112.3,141.4,113.9,141.3,116.4"/>
		<path class="st1" d="M156.4,102.5v3c0,0.2-0.1,0.3-0.4,0.3l-1.2-0.1c-0.1,0-0.2-0.1-0.2-0.2v-0.7l0,0h-3.7v14.9l0.8,0.1
			c0.2,0,0.2,0.2,0.2,0.4l-0.1,1.2c0,0.1-0.1,0.2-0.2,0.2c0,0,0,0,0,0h-4.2c-0.2,0-0.3-0.1-0.3-0.4l0.1-1.2c0-0.1,0.1-0.2,0.2-0.2
			l0.7-0.1v-14.9h-3.5v0.8c0,0.2-0.2,0.2-0.4,0.2l-1.2-0.1c-0.1,0-0.2-0.1-0.2-0.2c0,0,0,0,0,0v-3L156.4,102.5z"/>
		<path class="st1" d="M171.7,119.8c0.2,0,0.2,0.2,0.2,0.4l-0.1,1.2c0,0.1-0.1,0.2-0.2,0.2c0,0,0,0,0,0h-2.8l-4.2-7.4H162v5.5
			l0.8,0.1c0.2,0,0.2,0.2,0.2,0.4l-0.1,1.2c0,0.1-0.1,0.2-0.2,0.2c0,0,0,0,0,0h-4.2c-0.2,0-0.3-0.1-0.3-0.4l0.1-1.2
			c0-0.1,0.1-0.2,0.2-0.2l0.7-0.1v-15.3h-0.8c-0.2,0-0.2-0.2-0.2-0.4l0.1-1.2c0-0.1,0.1-0.2,0.2-0.2c0,0,0,0,0,0h5.5
			c4.8,0,7.1,1.8,7.1,5.7c0.1,2.4-1.4,4.6-3.6,5.5l3.5,6L171.7,119.8z M164.1,112c2.6,0,4.2-1.2,4.2-3.8s-1.4-3.5-4-3.5H162v7.3
			H164.1z"/>
		<path class="st1" d="M190,119.8c0.2,0,0.2,0.2,0.2,0.4l-0.1,1.2c0,0.1-0.1,0.2-0.2,0.2c0,0,0,0,0,0h-4.3c-0.2,0-0.3-0.1-0.3-0.4
			l0.1-1.2c0-0.1,0.1-0.2,0.2-0.2l0.7-0.1l-1-2.7h-7.8l-0.9,2.7l0.8,0.1c0.2,0,0.2,0.2,0.2,0.4l-0.1,1.2c0,0.1-0.1,0.2-0.2,0.2
			c0,0,0,0,0,0h-4.1c-0.2,0-0.3-0.1-0.3-0.4l0.1-1.2c0-0.1,0.1-0.2,0.2-0.2l0.7-0.1l5.5-15.3h-0.7c-0.2,0-0.2-0.2-0.2-0.4l0.1-1.2
			c0-0.1,0.1-0.2,0.2-0.2c0,0,0,0,0,0h3.9l6.6,17.2L190,119.8z M184.6,114.8l-3.2-9.1l0,0l-3,9.1H184.6z"/>
		<path class="st1" d="M203.8,118.4c0.1,0,0.2,0.1,0.2,0.2c0,0,0,0,0,0v3h-11.9c-0.2,0-0.3-0.1-0.3-0.4l0.1-1.2
			c0-0.1,0.1-0.2,0.2-0.2l0.7-0.1v-15.3H192c-0.2,0-0.2-0.2-0.2-0.4l0.1-1.2c0-0.1,0.1-0.2,0.2-0.2c0,0,0,0,0,0h4.2
			c0.2,0,0.3,0.2,0.3,0.4l-0.1,1.2c0,0.1-0.1,0.2-0.2,0.2h-0.7v14.9h6.6v-0.8c0-0.2,0.2-0.2,0.4-0.2L203.8,118.4z"/>
	</g>
</g>
<g>
	<defs>
		<rect id="SVGID_00000148633165689384105570000005367024954852696964_" x="29" y="59.2" width="200" height="65.7"/>
	</defs>
	<clipPath id="SVGID_00000121253184476367865290000004791133298956672420_">
		<use xlink:href="#SVGID_00000148633165689384105570000005367024954852696964_"  style="overflow:visible;"/>
	</clipPath>
	<g style="clip-path:url(#SVGID_00000121253184476367865290000004791133298956672420_);">
		<path class="st1" d="M210,119.8c0.2,0,0.2,0.2,0.2,0.4l-0.1,1.2c0,0.1-0.1,0.2-0.2,0.2c0,0,0,0,0,0h-4.2c-0.2,0-0.3-0.1-0.3-0.4
			l0.1-1.2c0-0.1,0.1-0.2,0.2-0.2l0.7-0.1v-15.3h-0.8c-0.2,0-0.2-0.2-0.2-0.4l0.1-1.2c0-0.1,0.1-0.2,0.2-0.2c0,0,0,0,0,0h4.2
			c0.2,0,0.3,0.2,0.3,0.4l-0.1,1.2c0,0.1-0.1,0.2-0.2,0.2h-0.7v15.3L210,119.8z"/>
		<path class="st1" d="M228.8,119.8c0.2,0,0.2,0.2,0.2,0.4l-0.1,1.2c0,0.1-0.1,0.2-0.2,0.2c0,0,0,0,0,0h-4.3c-0.2,0-0.3-0.1-0.3-0.4
			l0.1-1.2c0-0.1,0.1-0.2,0.2-0.2l0.7-0.1l-1-2.7h-7.7l-0.9,2.7l0.8,0.1c0.2,0,0.2,0.2,0.2,0.4l-0.1,1.2c0,0.1-0.1,0.2-0.2,0.2
			c0,0,0,0,0,0H212c-0.2,0-0.3-0.1-0.3-0.4l0.1-1.2c0-0.1,0.1-0.2,0.2-0.2l0.7-0.1l5.5-15.3h-0.7c-0.2,0-0.2-0.2-0.2-0.4l0.1-1.2
			c0-0.1,0.1-0.2,0.2-0.2c0,0,0,0,0,0h3.9l6.5,17.1L228.8,119.8z M223.4,114.8l-3.2-9.1l0,0l-3,9.1H223.4z"/>
	</g>
</g>
<g>
	<defs>
		<rect id="SVGID_00000127748074072362179330000013836290776072415132_" x="29" y="59.2" width="200" height="65.8"/>
	</defs>
	<clipPath id="SVGID_00000047033952937307347200000007048766033234796693_">
		<use xlink:href="#SVGID_00000127748074072362179330000013836290776072415132_"  style="overflow:visible;"/>
	</clipPath>
	<g style="clip-path:url(#SVGID_00000047033952937307347200000007048766033234796693_);">
		<path class="st1" d="M64,69.4h-1.3v-2H64c0,0.1,0,0.1,0,0.2c0,0.1,0,0.1,0,0.2h-0.8v0.4h0.7c0,0.1,0,0.1,0,0.2c0,0.1,0,0.1,0,0.2
			h-0.7v0.5H64c0,0.1,0,0.1,0,0.2C64,69.3,64,69.4,64,69.4"/>
		<path class="st1" d="M65.8,69.4h-0.2h-0.2l-0.4-0.7h-0.2v0.7h-0.2h-0.2v-2h0.6c0.5,0,0.8,0.2,0.8,0.7c0,0.2-0.1,0.5-0.4,0.6
			L65.8,69.4z M65,67.7h-0.2v0.6h0.1c0.2,0,0.4-0.1,0.4-0.3S65.2,67.7,65,67.7"/>
		<path class="st1" d="M67.3,69.4H66v-2h1.2c0,0.1,0,0.1,0,0.2c0,0.1,0,0.1,0,0.2h-0.8v0.4h0.7c0,0.1,0,0.1,0,0.2c0,0.1,0,0.1,0,0.2
			h-0.7v0.5h0.8c0,0.1,0,0.1,0,0.2C67.3,69.3,67.3,69.4,67.3,69.4"/>
		<path class="st1" d="M63.4,71.5h-0.2v0.7H63h-0.2v-2h0.6c0.5,0,0.8,0.2,0.8,0.6S63.8,71.5,63.4,71.5 M63.4,70.5h-0.2v0.6h0.2
			c0.2,0,0.3-0.1,0.3-0.3S63.6,70.5,63.4,70.5"/>
		<path class="st1" d="M65.7,72.2h-1.3v-2h1.2c0,0.1,0,0.1,0,0.2c0,0.1,0,0.1,0,0.2h-0.8V71h0.7c0,0.1,0,0.1,0,0.2
			c0,0.1,0,0.1,0,0.2h-0.7v0.5h0.8c0,0.1,0,0.1,0,0.2C65.7,72.1,65.7,72.1,65.7,72.2"/>
		<path class="st1" d="M67.4,72.2h-0.2c-0.1,0-0.1,0-0.2,0l-0.4-0.7h-0.2v0.7c-0.1,0-0.1,0-0.2,0c-0.1,0-0.1,0-0.2,0v-2h0.6
			c0.5,0,0.8,0.2,0.8,0.6c0,0.2-0.1,0.5-0.4,0.6L67.4,72.2z M66.6,70.5h-0.2v0.6h0.2c0.2,0,0.3-0.1,0.3-0.3S66.8,70.5,66.6,70.5"/>
		<path class="st1" d="M72.2,69.4H72h-0.2L71.7,69h-0.7l-0.1,0.4h-0.2h-0.2l0.7-2h0.2h0.2L72.2,69.4z M71.5,68.7l-0.2-0.5
			c0-0.1,0-0.2,0-0.2l0,0c0,0.1,0,0.2-0.1,0.2l-0.2,0.6L71.5,68.7z"/>
		<path class="st1" d="M73.9,69.4h-0.2h-0.2L73,68.7h-0.2v0.7h-0.2h-0.2v-2H73c0.5,0,0.8,0.2,0.8,0.7c0,0.2-0.1,0.5-0.3,0.6
			L73.9,69.4z M73,67.7h-0.2v0.6H73c0.2,0,0.4-0.1,0.4-0.3S73.2,67.7,73,67.7"/>
		<path class="st1" d="M71.3,70.5h-0.5v1.7h-0.4v-1.7h-0.5c0-0.1,0-0.1,0-0.2c0-0.1,0-0.1,0-0.2h1.5c0,0.1,0,0.1,0,0.2
			C71.3,70.4,71.3,70.5,71.3,70.5"/>
		<path class="st1" d="M72.8,72.2h-1.3v-2h1.2c0,0.1,0,0.1,0,0.2c0,0.1,0,0.1,0,0.2H72V71h0.7c0,0.1,0,0.1,0,0.2c0,0.1,0,0.1,0,0.2
			H72v0.5h0.8c0,0.1,0,0.1,0,0.2C72.8,72.1,72.8,72.1,72.8,72.2"/>
		<path class="st1" d="M73.7,72.2c-0.2,0-0.4,0-0.6-0.1c0,0,0-0.1,0-0.2c0-0.1,0-0.1,0-0.2c0.2,0.1,0.4,0.1,0.6,0.1
			c0.2,0,0.3-0.1,0.3-0.2s-0.1-0.2-0.4-0.3s-0.6-0.3-0.6-0.6s0.3-0.6,0.7-0.6c0.2,0,0.3,0,0.5,0.1c0,0,0,0.1,0,0.2
			c0,0.1,0,0.1,0,0.2c-0.1,0-0.3,0-0.4,0c-0.2,0-0.3,0.1-0.3,0.2s0.1,0.2,0.4,0.3c0.3,0.1,0.6,0.2,0.6,0.6
			C74.4,72,74.1,72.3,73.7,72.2C73.8,72.3,73.8,72.3,73.7,72.2"/>
		<path class="st1" d="M42.5,68.5c0,0.1,0.1,0.3,0.1,0.4l0,0c0-0.1,0.1-0.3,0.1-0.4l0.2-0.6c0.1-0.2,0.1-0.3,0.1-0.5h0.2h0.2
			c0,0.2,0,0.4-0.1,0.6l-0.5,1.4h-0.2h-0.2L41.8,68c-0.1-0.2-0.1-0.4-0.1-0.6H42h0.2c0,0.2,0,0.3,0.1,0.5L42.5,68.5z"/>
		<path class="st1" d="M44.1,69.4h-0.2h-0.2v-2h0.2h0.2V69.4z"/>
		<path class="st1" d="M45.9,67.8h-0.5v1.7h-0.2h-0.2v-1.7h-0.5c0-0.1,0-0.2,0-0.4h1.5C45.9,67.5,45.9,67.7,45.9,67.8"/>
		<path class="st1" d="M43.5,72.2h-0.2H43l-0.1-0.4h-0.7L42,72.2h-0.2h-0.2l0.7-2h0.4L43.5,72.2z M42.8,71.4l-0.2-0.6
			c0-0.1,0-0.2-0.1-0.2l0,0c0,0.1,0,0.2-0.1,0.2l-0.2,0.6H42.8z"/>
		<path class="st1" d="M45.7,72.2h-0.2h-0.2V71l-0.4,1c0,0-0.1,0-0.2,0h-0.1l-0.4-1v1.2h-0.2h-0.2l0.1-2h0.3l0.6,1.4l0.6-1.4h0.4
			L45.7,72.2z"/>
		<path class="st1" d="M50.1,69.4h-1.3v-2H50c0,0.1,0,0.1,0,0.2c0,0.1,0,0.1,0,0.2h-0.8v0.4h0.7c0,0.1,0,0.1,0,0.2
			c0,0.1,0,0.1,0,0.2h-0.7v0.5h0.8c0,0.1,0,0.1,0,0.2C50.1,69.3,50.1,69.4,50.1,69.4"/>
		<path class="st1" d="M50.5,68.9l0.4-0.5l-0.3-0.5c-0.1-0.1-0.2-0.3-0.2-0.5h0.2h0.2c0,0.1,0.1,0.2,0.2,0.3l0.2,0.3l0.2-0.3
			c0.1-0.1,0.1-0.2,0.2-0.3h0.2h0.2c0,0.2-0.1,0.4-0.2,0.5l-0.3,0.4l0.4,0.5c0.1,0.2,0.2,0.3,0.2,0.5h-0.2h-0.2
			c0-0.1-0.1-0.3-0.1-0.4l-0.3-0.4L50.9,69c-0.1,0.1-0.1,0.2-0.1,0.4h-0.2h-0.2C50.4,69.2,50.4,69,50.5,68.9"/>
		<path class="st1" d="M53.5,67.8c-0.1-0.1-0.3-0.1-0.5-0.1c-0.3,0-0.6,0.2-0.6,0.7s0.2,0.7,0.5,0.7c0.2,0,0.3,0,0.5-0.1
			c0,0.1,0,0.1,0,0.2c0,0,0,0.1,0,0.1c-0.2,0.1-0.3,0.1-0.5,0.1c-0.5,0-0.9-0.3-1-0.8c0-0.1,0-0.1,0-0.2c0-0.5,0.4-1,0.9-1
			c0,0,0.1,0,0.1,0c0.2,0,0.3,0,0.5,0.1c0,0,0,0.1,0,0.1C53.5,67.8,53.5,67.8,53.5,67.8"/>
		<path class="st1" d="M49.5,72.2c-0.5,0-0.8-0.4-0.8-1s0.3-1,0.8-1c0.6,0,0.8,0.4,0.8,1S50,72.2,49.5,72.2 M49.5,70.5
			c-0.3,0-0.4,0.2-0.4,0.7s0.1,0.7,0.4,0.7c0.3,0,0.4-0.2,0.4-0.7S49.8,70.5,49.5,70.5"/>
		<path class="st1" d="M51.8,72.2h-1.2v-2H51v1.7h0.8c0,0.1,0,0.1,0,0.2C51.8,72.1,51.8,72.1,51.8,72.2"/>
		<path class="st1" d="M53.5,71.4c0,0.5-0.2,0.8-0.8,0.8S52,71.9,52,71.4v-1.2h0.4v1.3c0,0.3,0.1,0.4,0.3,0.4s0.4-0.2,0.4-0.4v-1.3
			h0.4V71.4z"/>
	</g>
</g>
</svg>
